<svg xmlns="http://www.w3.org/2000/svg" width="950" height="490" viewBox="0 0 950 490">
<rect width="950" height="490" fill="#FBFAF7"/>

    <defs>
      <marker id="arrow" markerWidth="10" markerHeight="10" refX="8" refY="3"
              orient="auto" markerUnits="strokeWidth">
        <path d="M0,0 L0,6 L9,3 z" fill="#2F3437" />
      </marker>
      <filter id="shadow" x="-20%" y="-20%" width="140%" height="140%">
        <feDropShadow dx="0" dy="2" stdDeviation="2" flood-opacity="0.16"/>
      </filter>
    </defs>
    
<text x="70" y="38" text-anchor="start" font-family="Inter, Arial, sans-serif" font-size="18" font-weight="700" fill="#2F3437">A table is latent 2D structure</text>
<rect x="70" y="72" width="126" height="45" rx="4" fill="#4C78A8" stroke="#FFFFFF" stroke-width="1.2"/>
<text x="133.0" y="100" text-anchor="middle" font-family="Inter, Arial, sans-serif" font-size="13" font-weight="700" fill="#FFFFFF">Row</text>
<rect x="196" y="72" width="126" height="45" rx="4" fill="#4C78A8" stroke="#FFFFFF" stroke-width="1.2"/>
<text x="259.0" y="100" text-anchor="middle" font-family="Inter, Arial, sans-serif" font-size="13" font-weight="700" fill="#FFFFFF">Name</text>
<rect x="322" y="72" width="126" height="45" rx="4" fill="#4C78A8" stroke="#FFFFFF" stroke-width="1.2"/>
<text x="385.0" y="100" text-anchor="middle" font-family="Inter, Arial, sans-serif" font-size="13" font-weight="700" fill="#FFFFFF">Score</text>
<rect x="448" y="72" width="126" height="45" rx="4" fill="#4C78A8" stroke="#FFFFFF" stroke-width="1.2"/>
<text x="511.0" y="100" text-anchor="middle" font-family="Inter, Arial, sans-serif" font-size="13" font-weight="700" fill="#FFFFFF">City</text>
<rect x="70" y="117" width="126" height="45" rx="4" fill="#59A14F" stroke="#D4D7DA" stroke-width="1.2"/>
<text x="133.0" y="145" text-anchor="middle" font-family="Inter, Arial, sans-serif" font-size="13" font-weight="650" fill="#FFFFFF">1</text>
<rect x="196" y="117" width="126" height="45" rx="4" fill="#FFFFFF" stroke="#D4D7DA" stroke-width="1.2"/>
<text x="259.0" y="145" text-anchor="middle" font-family="Inter, Arial, sans-serif" font-size="13" font-weight="500" fill="#2F3437">Ada</text>
<rect x="322" y="117" width="126" height="45" rx="4" fill="#FFFFFF" stroke="#D4D7DA" stroke-width="1.2"/>
<text x="385.0" y="145" text-anchor="middle" font-family="Inter, Arial, sans-serif" font-size="13" font-weight="500" fill="#2F3437">91</text>
<rect x="448" y="117" width="126" height="45" rx="4" fill="#FFFFFF" stroke="#D4D7DA" stroke-width="1.2"/>
<text x="511.0" y="145" text-anchor="middle" font-family="Inter, Arial, sans-serif" font-size="13" font-weight="500" fill="#2F3437">Boston</text>
<rect x="70" y="162" width="126" height="45" rx="4" fill="#59A14F" stroke="#D4D7DA" stroke-width="1.2"/>
<text x="133.0" y="190" text-anchor="middle" font-family="Inter, Arial, sans-serif" font-size="13" font-weight="650" fill="#FFFFFF">2</text>
<rect x="196" y="162" width="126" height="45" rx="4" fill="#FFFFFF" stroke="#D4D7DA" stroke-width="1.2"/>
<text x="259.0" y="190" text-anchor="middle" font-family="Inter, Arial, sans-serif" font-size="13" font-weight="500" fill="#2F3437">Bea</text>
<rect x="322" y="162" width="126" height="45" rx="4" fill="#FFFFFF" stroke="#D4D7DA" stroke-width="1.2"/>
<text x="385.0" y="190" text-anchor="middle" font-family="Inter, Arial, sans-serif" font-size="13" font-weight="500" fill="#2F3437">84</text>
<rect x="448" y="162" width="126" height="45" rx="4" fill="#FFFFFF" stroke="#D4D7DA" stroke-width="1.2"/>
<text x="511.0" y="190" text-anchor="middle" font-family="Inter, Arial, sans-serif" font-size="13" font-weight="500" fill="#2F3437">Denver</text>
<text x="650" y="112" text-anchor="start" font-family="Inter, Arial, sans-serif" font-size="14" font-weight="650" fill="#2F3437">serialized as</text>
<path d="M590 138 C640 138, 640 138, 690 138" stroke="#2F3437" stroke-width="2" fill="none" marker-end="url(#arrow)"/>
<text x="70" y="242" text-anchor="start" font-family="Inter, Arial, sans-serif" font-size="18" font-weight="700" fill="#2F3437">The model receives one token stream</text>
<rect x="72" y="278" width="36" height="34" rx="14" fill="#9D7660" stroke="#D4D7DA" stroke-width="1.2"/>
<text x="90.0" y="300" text-anchor="middle" font-family="Inter, Arial, sans-serif" font-size="12" font-weight="650" fill="#FFFFFF">|</text>
<rect x="116" y="278" width="54" height="34" rx="14" fill="#4C78A8" stroke="#D4D7DA" stroke-width="1.2"/>
<text x="143.0" y="300" text-anchor="middle" font-family="Inter, Arial, sans-serif" font-size="12" font-weight="650" fill="#FFFFFF">Row</text>
<rect x="178" y="278" width="36" height="34" rx="14" fill="#9D7660" stroke="#D4D7DA" stroke-width="1.2"/>
<text x="196.0" y="300" text-anchor="middle" font-family="Inter, Arial, sans-serif" font-size="12" font-weight="650" fill="#FFFFFF">|</text>
<rect x="222" y="278" width="66" height="34" rx="14" fill="#4C78A8" stroke="#D4D7DA" stroke-width="1.2"/>
<text x="255.0" y="300" text-anchor="middle" font-family="Inter, Arial, sans-serif" font-size="12" font-weight="650" fill="#FFFFFF">Name</text>
<rect x="296" y="278" width="36" height="34" rx="14" fill="#9D7660" stroke="#D4D7DA" stroke-width="1.2"/>
<text x="314.0" y="300" text-anchor="middle" font-family="Inter, Arial, sans-serif" font-size="12" font-weight="650" fill="#FFFFFF">|</text>
<rect x="340" y="278" width="78" height="34" rx="14" fill="#4C78A8" stroke="#D4D7DA" stroke-width="1.2"/>
<text x="379.0" y="300" text-anchor="middle" font-family="Inter, Arial, sans-serif" font-size="12" font-weight="650" fill="#FFFFFF">Score</text>
<rect x="426" y="278" width="36" height="34" rx="14" fill="#9D7660" stroke="#D4D7DA" stroke-width="1.2"/>
<text x="444.0" y="300" text-anchor="middle" font-family="Inter, Arial, sans-serif" font-size="12" font-weight="650" fill="#FFFFFF">|</text>
<rect x="470" y="278" width="66" height="34" rx="14" fill="#4C78A8" stroke="#D4D7DA" stroke-width="1.2"/>
<text x="503.0" y="300" text-anchor="middle" font-family="Inter, Arial, sans-serif" font-size="12" font-weight="650" fill="#FFFFFF">City</text>
<rect x="544" y="278" width="36" height="34" rx="14" fill="#9D7660" stroke="#D4D7DA" stroke-width="1.2"/>
<text x="562.0" y="300" text-anchor="middle" font-family="Inter, Arial, sans-serif" font-size="12" font-weight="650" fill="#FFFFFF">|</text>
<rect x="588" y="278" width="42" height="34" rx="14" fill="#FFFFFF" stroke="#D4D7DA" stroke-width="1.2"/>
<text x="609.0" y="300" text-anchor="middle" font-family="Inter, Arial, sans-serif" font-size="12" font-weight="650" fill="#2F3437">\n</text>
<rect x="638" y="278" width="36" height="34" rx="14" fill="#9D7660" stroke="#D4D7DA" stroke-width="1.2"/>
<text x="656.0" y="300" text-anchor="middle" font-family="Inter, Arial, sans-serif" font-size="12" font-weight="650" fill="#FFFFFF">|</text>
<rect x="682" y="278" width="36" height="34" rx="14" fill="#59A14F" stroke="#D4D7DA" stroke-width="1.2"/>
<text x="700.0" y="300" text-anchor="middle" font-family="Inter, Arial, sans-serif" font-size="12" font-weight="650" fill="#FFFFFF">1</text>
<rect x="726" y="278" width="36" height="34" rx="14" fill="#9D7660" stroke="#D4D7DA" stroke-width="1.2"/>
<text x="744.0" y="300" text-anchor="middle" font-family="Inter, Arial, sans-serif" font-size="12" font-weight="650" fill="#FFFFFF">|</text>
<rect x="770" y="278" width="54" height="34" rx="14" fill="#FFFFFF" stroke="#D4D7DA" stroke-width="1.2"/>
<text x="797.0" y="300" text-anchor="middle" font-family="Inter, Arial, sans-serif" font-size="12" font-weight="650" fill="#2F3437">Ada</text>
<rect x="832" y="278" width="36" height="34" rx="14" fill="#9D7660" stroke="#D4D7DA" stroke-width="1.2"/>
<text x="850.0" y="300" text-anchor="middle" font-family="Inter, Arial, sans-serif" font-size="12" font-weight="650" fill="#FFFFFF">|</text>
<rect x="72" y="326" width="42" height="34" rx="14" fill="#F28E2B" stroke="#D4D7DA" stroke-width="1.2"/>
<text x="93.0" y="348" text-anchor="middle" font-family="Inter, Arial, sans-serif" font-size="12" font-weight="650" fill="#FFFFFF">91</text>
<rect x="122" y="326" width="36" height="34" rx="14" fill="#9D7660" stroke="#D4D7DA" stroke-width="1.2"/>
<text x="140.0" y="348" text-anchor="middle" font-family="Inter, Arial, sans-serif" font-size="12" font-weight="650" fill="#FFFFFF">|</text>
<rect x="166" y="326" width="90" height="34" rx="14" fill="#FFFFFF" stroke="#D4D7DA" stroke-width="1.2"/>
<text x="211.0" y="348" text-anchor="middle" font-family="Inter, Arial, sans-serif" font-size="12" font-weight="650" fill="#2F3437">Boston</text>
<rect x="264" y="326" width="36" height="34" rx="14" fill="#9D7660" stroke="#D4D7DA" stroke-width="1.2"/>
<text x="282.0" y="348" text-anchor="middle" font-family="Inter, Arial, sans-serif" font-size="12" font-weight="650" fill="#FFFFFF">|</text>
<rect x="308" y="326" width="42" height="34" rx="14" fill="#FFFFFF" stroke="#D4D7DA" stroke-width="1.2"/>
<text x="329.0" y="348" text-anchor="middle" font-family="Inter, Arial, sans-serif" font-size="12" font-weight="650" fill="#2F3437">\n</text>
<rect x="358" y="326" width="126" height="34" rx="14" fill="#B07AA1" stroke="#D4D7DA" stroke-width="1.2"/>
<text x="421.0" y="348" text-anchor="middle" font-family="Inter, Arial, sans-serif" font-size="12" font-weight="650" fill="#FFFFFF">Question:</text>
<rect x="492" y="326" width="78" height="34" rx="14" fill="#4C78A8" stroke="#D4D7DA" stroke-width="1.2"/>
<text x="531.0" y="348" text-anchor="middle" font-family="Inter, Arial, sans-serif" font-size="12" font-weight="650" fill="#FFFFFF">Score</text>
<rect x="578" y="326" width="54" height="34" rx="14" fill="#B07AA1" stroke="#D4D7DA" stroke-width="1.2"/>
<text x="605.0" y="348" text-anchor="middle" font-family="Inter, Arial, sans-serif" font-size="12" font-weight="650" fill="#FFFFFF">row</text>
<rect x="640" y="326" width="36" height="34" rx="14" fill="#59A14F" stroke="#D4D7DA" stroke-width="1.2"/>
<text x="658.0" y="348" text-anchor="middle" font-family="Inter, Arial, sans-serif" font-size="12" font-weight="650" fill="#FFFFFF">2</text>
<rect x="684" y="326" width="36" height="34" rx="14" fill="#B07AA1" stroke="#D4D7DA" stroke-width="1.2"/>
<text x="702.0" y="348" text-anchor="middle" font-family="Inter, Arial, sans-serif" font-size="12" font-weight="650" fill="#FFFFFF">?</text>
<text x="70" y="450" text-anchor="start" font-family="Inter, Arial, sans-serif" font-size="14" font-weight="500" fill="#2F3437">Headers, delimiters, row indices, values, and question words become landmarks.</text>
</svg>
