<?xml version="1.0" encoding="utf-8" standalone="no"?>
<!DOCTYPE svg PUBLIC "-//W3C//DTD SVG 1.1//EN"
  "http://www.w3.org/Graphics/SVG/1.1/DTD/svg11.dtd">
<svg xmlns:xlink="http://www.w3.org/1999/xlink" width="713.233705pt" height="326.149812pt" viewBox="0 0 713.233705 326.149812" xmlns="http://www.w3.org/2000/svg" version="1.1">
 <metadata>
  <rdf:RDF xmlns:dc="http://purl.org/dc/elements/1.1/" xmlns:cc="http://creativecommons.org/ns#" xmlns:rdf="http://www.w3.org/1999/02/22-rdf-syntax-ns#">
   <cc:Work>
    <dc:type rdf:resource="http://purl.org/dc/dcmitype/StillImage"/>
    <dc:date>2026-07-08T13:17:29.264204</dc:date>
    <dc:format>image/svg+xml</dc:format>
    <dc:creator>
     <cc:Agent>
      <dc:title>Matplotlib v3.9.4, https://matplotlib.org/</dc:title>
     </cc:Agent>
    </dc:creator>
   </cc:Work>
  </rdf:RDF>
 </metadata>
 <defs>
  <style type="text/css">*{stroke-linejoin: round; stroke-linecap: butt}</style>
 </defs>
 <g id="figure_1">
  <g id="patch_1">
   <path d="M 0 326.149812 
L 713.233705 326.149812 
L 713.233705 0 
L 0 0 
z
" style="fill: #ffffff"/>
  </g>
  <g id="axes_1">
   <g id="patch_2">
    <path d="M 148.033705 97.189812 
L 227.747991 97.189812 
L 227.747991 52.837812 
L 148.033705 52.837812 
z
" clip-path="url(#p68f8aea7d4)" style="fill: #f4c46b; stroke: #ffffff; stroke-width: 2; stroke-linejoin: miter"/>
   </g>
   <g id="patch_3">
    <path d="M 227.747991 97.189812 
L 307.462277 97.189812 
L 307.462277 52.837812 
L 227.747991 52.837812 
z
" clip-path="url(#p68f8aea7d4)" style="fill: #f4c46b; stroke: #ffffff; stroke-width: 2; stroke-linejoin: miter"/>
   </g>
   <g id="patch_4">
    <path d="M 307.462277 97.189812 
L 387.176562 97.189812 
L 387.176562 52.837812 
L 307.462277 52.837812 
z
" clip-path="url(#p68f8aea7d4)" style="fill: #59a14f; stroke: #ffffff; stroke-width: 2; stroke-linejoin: miter"/>
   </g>
   <g id="patch_5">
    <path d="M 387.176562 97.189812 
L 466.890848 97.189812 
L 466.890848 52.837812 
L 387.176562 52.837812 
z
" clip-path="url(#p68f8aea7d4)" style="fill: #59a14f; stroke: #ffffff; stroke-width: 2; stroke-linejoin: miter"/>
   </g>
   <g id="patch_6">
    <path d="M 466.890848 97.189812 
L 546.605134 97.189812 
L 546.605134 52.837812 
L 466.890848 52.837812 
z
" clip-path="url(#p68f8aea7d4)" style="fill: #59a14f; stroke: #ffffff; stroke-width: 2; stroke-linejoin: miter"/>
   </g>
   <g id="patch_7">
    <path d="M 546.605134 97.189812 
L 626.31942 97.189812 
L 626.31942 52.837812 
L 546.605134 52.837812 
z
" clip-path="url(#p68f8aea7d4)" style="fill: #f4c46b; stroke: #ffffff; stroke-width: 2; stroke-linejoin: miter"/>
   </g>
   <g id="patch_8">
    <path d="M 626.31942 97.189812 
L 706.033705 97.189812 
L 706.033705 52.837812 
L 626.31942 52.837812 
z
" clip-path="url(#p68f8aea7d4)" style="fill: #f4c46b; stroke: #ffffff; stroke-width: 2; stroke-linejoin: miter"/>
   </g>
   <g id="patch_9">
    <path d="M 148.033705 141.541812 
L 227.747991 141.541812 
L 227.747991 97.189812 
L 148.033705 97.189812 
z
" clip-path="url(#p68f8aea7d4)" style="fill: #f4c46b; stroke: #ffffff; stroke-width: 2; stroke-linejoin: miter"/>
   </g>
   <g id="patch_10">
    <path d="M 227.747991 141.541812 
L 307.462277 141.541812 
L 307.462277 97.189812 
L 227.747991 97.189812 
z
" clip-path="url(#p68f8aea7d4)" style="fill: #ecebe6; stroke: #ffffff; stroke-width: 2; stroke-linejoin: miter"/>
   </g>
   <g id="patch_11">
    <path d="M 307.462277 141.541812 
L 387.176562 141.541812 
L 387.176562 97.189812 
L 307.462277 97.189812 
z
" clip-path="url(#p68f8aea7d4)" style="fill: #59a14f; stroke: #ffffff; stroke-width: 2; stroke-linejoin: miter"/>
   </g>
   <g id="patch_12">
    <path d="M 387.176562 141.541812 
L 466.890848 141.541812 
L 466.890848 97.189812 
L 387.176562 97.189812 
z
" clip-path="url(#p68f8aea7d4)" style="fill: #f4c46b; stroke: #ffffff; stroke-width: 2; stroke-linejoin: miter"/>
   </g>
   <g id="patch_13">
    <path d="M 466.890848 141.541812 
L 546.605134 141.541812 
L 546.605134 97.189812 
L 466.890848 97.189812 
z
" clip-path="url(#p68f8aea7d4)" style="fill: #59a14f; stroke: #ffffff; stroke-width: 2; stroke-linejoin: miter"/>
   </g>
   <g id="patch_14">
    <path d="M 546.605134 141.541812 
L 626.31942 141.541812 
L 626.31942 97.189812 
L 546.605134 97.189812 
z
" clip-path="url(#p68f8aea7d4)" style="fill: #ecebe6; stroke: #ffffff; stroke-width: 2; stroke-linejoin: miter"/>
   </g>
   <g id="patch_15">
    <path d="M 626.31942 141.541812 
L 706.033705 141.541812 
L 706.033705 97.189812 
L 626.31942 97.189812 
z
" clip-path="url(#p68f8aea7d4)" style="fill: #f4c46b; stroke: #ffffff; stroke-width: 2; stroke-linejoin: miter"/>
   </g>
   <g id="patch_16">
    <path d="M 148.033705 185.893812 
L 227.747991 185.893812 
L 227.747991 141.541812 
L 148.033705 141.541812 
z
" clip-path="url(#p68f8aea7d4)" style="fill: #ecebe6; stroke: #ffffff; stroke-width: 2; stroke-linejoin: miter"/>
   </g>
   <g id="patch_17">
    <path d="M 227.747991 185.893812 
L 307.462277 185.893812 
L 307.462277 141.541812 
L 227.747991 141.541812 
z
" clip-path="url(#p68f8aea7d4)" style="fill: #ecebe6; stroke: #ffffff; stroke-width: 2; stroke-linejoin: miter"/>
   </g>
   <g id="patch_18">
    <path d="M 307.462277 185.893812 
L 387.176562 185.893812 
L 387.176562 141.541812 
L 307.462277 141.541812 
z
" clip-path="url(#p68f8aea7d4)" style="fill: #59a14f; stroke: #ffffff; stroke-width: 2; stroke-linejoin: miter"/>
   </g>
   <g id="patch_19">
    <path d="M 387.176562 185.893812 
L 466.890848 185.893812 
L 466.890848 141.541812 
L 387.176562 141.541812 
z
" clip-path="url(#p68f8aea7d4)" style="fill: #f4c46b; stroke: #ffffff; stroke-width: 2; stroke-linejoin: miter"/>
   </g>
   <g id="patch_20">
    <path d="M 466.890848 185.893812 
L 546.605134 185.893812 
L 546.605134 141.541812 
L 466.890848 141.541812 
z
" clip-path="url(#p68f8aea7d4)" style="fill: #59a14f; stroke: #ffffff; stroke-width: 2; stroke-linejoin: miter"/>
   </g>
   <g id="patch_21">
    <path d="M 546.605134 185.893812 
L 626.31942 185.893812 
L 626.31942 141.541812 
L 546.605134 141.541812 
z
" clip-path="url(#p68f8aea7d4)" style="fill: #f4c46b; stroke: #ffffff; stroke-width: 2; stroke-linejoin: miter"/>
   </g>
   <g id="patch_22">
    <path d="M 626.31942 185.893812 
L 706.033705 185.893812 
L 706.033705 141.541812 
L 626.31942 141.541812 
z
" clip-path="url(#p68f8aea7d4)" style="fill: #ecebe6; stroke: #ffffff; stroke-width: 2; stroke-linejoin: miter"/>
   </g>
   <g id="patch_23">
    <path d="M 148.033705 230.245812 
L 227.747991 230.245812 
L 227.747991 185.893812 
L 148.033705 185.893812 
z
" clip-path="url(#p68f8aea7d4)" style="fill: #59a14f; stroke: #ffffff; stroke-width: 2; stroke-linejoin: miter"/>
   </g>
   <g id="patch_24">
    <path d="M 227.747991 230.245812 
L 307.462277 230.245812 
L 307.462277 185.893812 
L 227.747991 185.893812 
z
" clip-path="url(#p68f8aea7d4)" style="fill: #ecebe6; stroke: #ffffff; stroke-width: 2; stroke-linejoin: miter"/>
   </g>
   <g id="patch_25">
    <path d="M 307.462277 230.245812 
L 387.176562 230.245812 
L 387.176562 185.893812 
L 307.462277 185.893812 
z
" clip-path="url(#p68f8aea7d4)" style="fill: #ecebe6; stroke: #ffffff; stroke-width: 2; stroke-linejoin: miter"/>
   </g>
   <g id="patch_26">
    <path d="M 387.176562 230.245812 
L 466.890848 230.245812 
L 466.890848 185.893812 
L 387.176562 185.893812 
z
" clip-path="url(#p68f8aea7d4)" style="fill: #f4c46b; stroke: #ffffff; stroke-width: 2; stroke-linejoin: miter"/>
   </g>
   <g id="patch_27">
    <path d="M 466.890848 230.245812 
L 546.605134 230.245812 
L 546.605134 185.893812 
L 466.890848 185.893812 
z
" clip-path="url(#p68f8aea7d4)" style="fill: #59a14f; stroke: #ffffff; stroke-width: 2; stroke-linejoin: miter"/>
   </g>
   <g id="patch_28">
    <path d="M 546.605134 230.245812 
L 626.31942 230.245812 
L 626.31942 185.893812 
L 546.605134 185.893812 
z
" clip-path="url(#p68f8aea7d4)" style="fill: #59a14f; stroke: #ffffff; stroke-width: 2; stroke-linejoin: miter"/>
   </g>
   <g id="patch_29">
    <path d="M 626.31942 230.245812 
L 706.033705 230.245812 
L 706.033705 185.893812 
L 626.31942 185.893812 
z
" clip-path="url(#p68f8aea7d4)" style="fill: #f4c46b; stroke: #ffffff; stroke-width: 2; stroke-linejoin: miter"/>
   </g>
   <g id="patch_30">
    <path d="M 148.033705 274.597812 
L 227.747991 274.597812 
L 227.747991 230.245812 
L 148.033705 230.245812 
z
" clip-path="url(#p68f8aea7d4)" style="fill: #59a14f; stroke: #ffffff; stroke-width: 2; stroke-linejoin: miter"/>
   </g>
   <g id="patch_31">
    <path d="M 227.747991 274.597812 
L 307.462277 274.597812 
L 307.462277 230.245812 
L 227.747991 230.245812 
z
" clip-path="url(#p68f8aea7d4)" style="fill: #ecebe6; stroke: #ffffff; stroke-width: 2; stroke-linejoin: miter"/>
   </g>
   <g id="patch_32">
    <path d="M 307.462277 274.597812 
L 387.176562 274.597812 
L 387.176562 230.245812 
L 307.462277 230.245812 
z
" clip-path="url(#p68f8aea7d4)" style="fill: #ecebe6; stroke: #ffffff; stroke-width: 2; stroke-linejoin: miter"/>
   </g>
   <g id="patch_33">
    <path d="M 387.176562 274.597812 
L 466.890848 274.597812 
L 466.890848 230.245812 
L 387.176562 230.245812 
z
" clip-path="url(#p68f8aea7d4)" style="fill: #ecebe6; stroke: #ffffff; stroke-width: 2; stroke-linejoin: miter"/>
   </g>
   <g id="patch_34">
    <path d="M 466.890848 274.597812 
L 546.605134 274.597812 
L 546.605134 230.245812 
L 466.890848 230.245812 
z
" clip-path="url(#p68f8aea7d4)" style="fill: #ecebe6; stroke: #ffffff; stroke-width: 2; stroke-linejoin: miter"/>
   </g>
   <g id="patch_35">
    <path d="M 546.605134 274.597812 
L 626.31942 274.597812 
L 626.31942 230.245812 
L 546.605134 230.245812 
z
" clip-path="url(#p68f8aea7d4)" style="fill: #ecebe6; stroke: #ffffff; stroke-width: 2; stroke-linejoin: miter"/>
   </g>
   <g id="patch_36">
    <path d="M 626.31942 274.597812 
L 706.033705 274.597812 
L 706.033705 230.245812 
L 626.31942 230.245812 
z
" clip-path="url(#p68f8aea7d4)" style="fill: #f4c46b; stroke: #ffffff; stroke-width: 2; stroke-linejoin: miter"/>
   </g>
   <g id="patch_37">
    <path d="M 148.033705 318.949812 
L 227.747991 318.949812 
L 227.747991 274.597812 
L 148.033705 274.597812 
z
" clip-path="url(#p68f8aea7d4)" style="fill: #f4c46b; stroke: #ffffff; stroke-width: 2; stroke-linejoin: miter"/>
   </g>
   <g id="patch_38">
    <path d="M 227.747991 318.949812 
L 307.462277 318.949812 
L 307.462277 274.597812 
L 227.747991 274.597812 
z
" clip-path="url(#p68f8aea7d4)" style="fill: #ecebe6; stroke: #ffffff; stroke-width: 2; stroke-linejoin: miter"/>
   </g>
   <g id="patch_39">
    <path d="M 307.462277 318.949812 
L 387.176562 318.949812 
L 387.176562 274.597812 
L 307.462277 274.597812 
z
" clip-path="url(#p68f8aea7d4)" style="fill: #f4c46b; stroke: #ffffff; stroke-width: 2; stroke-linejoin: miter"/>
   </g>
   <g id="patch_40">
    <path d="M 387.176562 318.949812 
L 466.890848 318.949812 
L 466.890848 274.597812 
L 387.176562 274.597812 
z
" clip-path="url(#p68f8aea7d4)" style="fill: #f4c46b; stroke: #ffffff; stroke-width: 2; stroke-linejoin: miter"/>
   </g>
   <g id="patch_41">
    <path d="M 466.890848 318.949812 
L 546.605134 318.949812 
L 546.605134 274.597812 
L 466.890848 274.597812 
z
" clip-path="url(#p68f8aea7d4)" style="fill: #59a14f; stroke: #ffffff; stroke-width: 2; stroke-linejoin: miter"/>
   </g>
   <g id="patch_42">
    <path d="M 546.605134 318.949812 
L 626.31942 318.949812 
L 626.31942 274.597812 
L 546.605134 274.597812 
z
" clip-path="url(#p68f8aea7d4)" style="fill: #59a14f; stroke: #ffffff; stroke-width: 2; stroke-linejoin: miter"/>
   </g>
   <g id="patch_43">
    <path d="M 626.31942 318.949812 
L 706.033705 318.949812 
L 706.033705 274.597812 
L 626.31942 274.597812 
z
" clip-path="url(#p68f8aea7d4)" style="fill: #ecebe6; stroke: #ffffff; stroke-width: 2; stroke-linejoin: miter"/>
   </g>
   <g id="text_1">
    <!-- Two-stage pipeline -->
    <g transform="translate(29.909375 77.734125) scale(0.1 -0.1)">
     <defs>
      <path id="DejaVuSans-Bold-54" d="M 31 4666 
L 4331 4666 
L 4331 3756 
L 2784 3756 
L 2784 0 
L 1581 0 
L 1581 3756 
L 31 3756 
L 31 4666 
z
" transform="scale(0.015625)"/>
      <path id="DejaVuSans-Bold-77" d="M 225 3500 
L 1313 3500 
L 1900 1088 
L 2491 3500 
L 3425 3500 
L 4013 1113 
L 4603 3500 
L 5691 3500 
L 4769 0 
L 3547 0 
L 2956 2406 
L 2369 0 
L 1147 0 
L 225 3500 
z
" transform="scale(0.015625)"/>
      <path id="DejaVuSans-Bold-6f" d="M 2203 2784 
Q 1831 2784 1636 2517 
Q 1441 2250 1441 1747 
Q 1441 1244 1636 976 
Q 1831 709 2203 709 
Q 2569 709 2762 976 
Q 2956 1244 2956 1747 
Q 2956 2250 2762 2517 
Q 2569 2784 2203 2784 
z
M 2203 3584 
Q 3106 3584 3614 3096 
Q 4122 2609 4122 1747 
Q 4122 884 3614 396 
Q 3106 -91 2203 -91 
Q 1297 -91 786 396 
Q 275 884 275 1747 
Q 275 2609 786 3096 
Q 1297 3584 2203 3584 
z
" transform="scale(0.015625)"/>
      <path id="DejaVuSans-Bold-2d" d="M 347 2297 
L 2309 2297 
L 2309 1388 
L 347 1388 
L 347 2297 
z
" transform="scale(0.015625)"/>
      <path id="DejaVuSans-Bold-73" d="M 3272 3391 
L 3272 2541 
Q 2913 2691 2578 2766 
Q 2244 2841 1947 2841 
Q 1628 2841 1473 2761 
Q 1319 2681 1319 2516 
Q 1319 2381 1436 2309 
Q 1553 2238 1856 2203 
L 2053 2175 
Q 2913 2066 3209 1816 
Q 3506 1566 3506 1031 
Q 3506 472 3093 190 
Q 2681 -91 1863 -91 
Q 1516 -91 1145 -36 
Q 775 19 384 128 
L 384 978 
Q 719 816 1070 734 
Q 1422 653 1784 653 
Q 2113 653 2278 743 
Q 2444 834 2444 1013 
Q 2444 1163 2330 1236 
Q 2216 1309 1875 1350 
L 1678 1375 
Q 931 1469 631 1722 
Q 331 1975 331 2491 
Q 331 3047 712 3315 
Q 1094 3584 1881 3584 
Q 2191 3584 2531 3537 
Q 2872 3491 3272 3391 
z
" transform="scale(0.015625)"/>
      <path id="DejaVuSans-Bold-74" d="M 1759 4494 
L 1759 3500 
L 2913 3500 
L 2913 2700 
L 1759 2700 
L 1759 1216 
Q 1759 972 1856 886 
Q 1953 800 2241 800 
L 2816 800 
L 2816 0 
L 1856 0 
Q 1194 0 917 276 
Q 641 553 641 1216 
L 641 2700 
L 84 2700 
L 84 3500 
L 641 3500 
L 641 4494 
L 1759 4494 
z
" transform="scale(0.015625)"/>
      <path id="DejaVuSans-Bold-61" d="M 2106 1575 
Q 1756 1575 1579 1456 
Q 1403 1338 1403 1106 
Q 1403 894 1545 773 
Q 1688 653 1941 653 
Q 2256 653 2472 879 
Q 2688 1106 2688 1447 
L 2688 1575 
L 2106 1575 
z
M 3816 1997 
L 3816 0 
L 2688 0 
L 2688 519 
Q 2463 200 2181 54 
Q 1900 -91 1497 -91 
Q 953 -91 614 226 
Q 275 544 275 1050 
Q 275 1666 698 1953 
Q 1122 2241 2028 2241 
L 2688 2241 
L 2688 2328 
Q 2688 2594 2478 2717 
Q 2269 2841 1825 2841 
Q 1466 2841 1156 2769 
Q 847 2697 581 2553 
L 581 3406 
Q 941 3494 1303 3539 
Q 1666 3584 2028 3584 
Q 2975 3584 3395 3211 
Q 3816 2838 3816 1997 
z
" transform="scale(0.015625)"/>
      <path id="DejaVuSans-Bold-67" d="M 2919 594 
Q 2688 288 2409 144 
Q 2131 0 1766 0 
Q 1125 0 706 504 
Q 288 1009 288 1791 
Q 288 2575 706 3076 
Q 1125 3578 1766 3578 
Q 2131 3578 2409 3434 
Q 2688 3291 2919 2981 
L 2919 3500 
L 4044 3500 
L 4044 353 
Q 4044 -491 3511 -936 
Q 2978 -1381 1966 -1381 
Q 1638 -1381 1331 -1331 
Q 1025 -1281 716 -1178 
L 716 -306 
Q 1009 -475 1290 -558 
Q 1572 -641 1856 -641 
Q 2406 -641 2662 -400 
Q 2919 -159 2919 353 
L 2919 594 
z
M 2181 2772 
Q 1834 2772 1640 2515 
Q 1447 2259 1447 1791 
Q 1447 1309 1634 1061 
Q 1822 813 2181 813 
Q 2531 813 2725 1069 
Q 2919 1325 2919 1791 
Q 2919 2259 2725 2515 
Q 2531 2772 2181 2772 
z
" transform="scale(0.015625)"/>
      <path id="DejaVuSans-Bold-65" d="M 4031 1759 
L 4031 1441 
L 1416 1441 
Q 1456 1047 1700 850 
Q 1944 653 2381 653 
Q 2734 653 3104 758 
Q 3475 863 3866 1075 
L 3866 213 
Q 3469 63 3072 -14 
Q 2675 -91 2278 -91 
Q 1328 -91 801 392 
Q 275 875 275 1747 
Q 275 2603 792 3093 
Q 1309 3584 2216 3584 
Q 3041 3584 3536 3087 
Q 4031 2591 4031 1759 
z
M 2881 2131 
Q 2881 2450 2695 2645 
Q 2509 2841 2209 2841 
Q 1884 2841 1681 2658 
Q 1478 2475 1428 2131 
L 2881 2131 
z
" transform="scale(0.015625)"/>
      <path id="DejaVuSans-Bold-20" transform="scale(0.015625)"/>
      <path id="DejaVuSans-Bold-70" d="M 1656 506 
L 1656 -1331 
L 538 -1331 
L 538 3500 
L 1656 3500 
L 1656 2988 
Q 1888 3294 2169 3439 
Q 2450 3584 2816 3584 
Q 3463 3584 3878 3070 
Q 4294 2556 4294 1747 
Q 4294 938 3878 423 
Q 3463 -91 2816 -91 
Q 2450 -91 2169 54 
Q 1888 200 1656 506 
z
M 2400 2772 
Q 2041 2772 1848 2508 
Q 1656 2244 1656 1747 
Q 1656 1250 1848 986 
Q 2041 722 2400 722 
Q 2759 722 2948 984 
Q 3138 1247 3138 1747 
Q 3138 2247 2948 2509 
Q 2759 2772 2400 2772 
z
" transform="scale(0.015625)"/>
      <path id="DejaVuSans-Bold-69" d="M 538 3500 
L 1656 3500 
L 1656 0 
L 538 0 
L 538 3500 
z
M 538 4863 
L 1656 4863 
L 1656 3950 
L 538 3950 
L 538 4863 
z
" transform="scale(0.015625)"/>
      <path id="DejaVuSans-Bold-6c" d="M 538 4863 
L 1656 4863 
L 1656 0 
L 538 0 
L 538 4863 
z
" transform="scale(0.015625)"/>
      <path id="DejaVuSans-Bold-6e" d="M 4056 2131 
L 4056 0 
L 2931 0 
L 2931 347 
L 2931 1631 
Q 2931 2084 2911 2256 
Q 2891 2428 2841 2509 
Q 2775 2619 2662 2680 
Q 2550 2741 2406 2741 
Q 2056 2741 1856 2470 
Q 1656 2200 1656 1722 
L 1656 0 
L 538 0 
L 538 3500 
L 1656 3500 
L 1656 2988 
Q 1909 3294 2193 3439 
Q 2478 3584 2822 3584 
Q 3428 3584 3742 3212 
Q 4056 2841 4056 2131 
z
" transform="scale(0.015625)"/>
     </defs>
     <use xlink:href="#DejaVuSans-Bold-54"/>
     <use xlink:href="#DejaVuSans-Bold-77" x="57.212891"/>
     <use xlink:href="#DejaVuSans-Bold-6f" x="149.595703"/>
     <use xlink:href="#DejaVuSans-Bold-2d" x="218.296875"/>
     <use xlink:href="#DejaVuSans-Bold-73" x="259.800781"/>
     <use xlink:href="#DejaVuSans-Bold-74" x="319.322266"/>
     <use xlink:href="#DejaVuSans-Bold-61" x="367.125"/>
     <use xlink:href="#DejaVuSans-Bold-67" x="434.605469"/>
     <use xlink:href="#DejaVuSans-Bold-65" x="506.1875"/>
     <use xlink:href="#DejaVuSans-Bold-20" x="574.009766"/>
     <use xlink:href="#DejaVuSans-Bold-70" x="608.824219"/>
     <use xlink:href="#DejaVuSans-Bold-69" x="680.40625"/>
     <use xlink:href="#DejaVuSans-Bold-70" x="714.683594"/>
     <use xlink:href="#DejaVuSans-Bold-65" x="786.265625"/>
     <use xlink:href="#DejaVuSans-Bold-6c" x="854.087891"/>
     <use xlink:href="#DejaVuSans-Bold-69" x="888.365234"/>
     <use xlink:href="#DejaVuSans-Bold-6e" x="922.642578"/>
     <use xlink:href="#DejaVuSans-Bold-65" x="993.833984"/>
    </g>
   </g>
   <g id="text_2">
    <!-- partial -->
    <g style="fill: #2f3437" transform="translate(175.013973 77.221312) scale(0.08 -0.08)">
     <defs>
      <path id="DejaVuSans-70" d="M 1159 525 
L 1159 -1331 
L 581 -1331 
L 581 3500 
L 1159 3500 
L 1159 2969 
Q 1341 3281 1617 3432 
Q 1894 3584 2278 3584 
Q 2916 3584 3314 3078 
Q 3713 2572 3713 1747 
Q 3713 922 3314 415 
Q 2916 -91 2278 -91 
Q 1894 -91 1617 61 
Q 1341 213 1159 525 
z
M 3116 1747 
Q 3116 2381 2855 2742 
Q 2594 3103 2138 3103 
Q 1681 3103 1420 2742 
Q 1159 2381 1159 1747 
Q 1159 1113 1420 752 
Q 1681 391 2138 391 
Q 2594 391 2855 752 
Q 3116 1113 3116 1747 
z
" transform="scale(0.015625)"/>
      <path id="DejaVuSans-61" d="M 2194 1759 
Q 1497 1759 1228 1600 
Q 959 1441 959 1056 
Q 959 750 1161 570 
Q 1363 391 1709 391 
Q 2188 391 2477 730 
Q 2766 1069 2766 1631 
L 2766 1759 
L 2194 1759 
z
M 3341 1997 
L 3341 0 
L 2766 0 
L 2766 531 
Q 2569 213 2275 61 
Q 1981 -91 1556 -91 
Q 1019 -91 701 211 
Q 384 513 384 1019 
Q 384 1609 779 1909 
Q 1175 2209 1959 2209 
L 2766 2209 
L 2766 2266 
Q 2766 2663 2505 2880 
Q 2244 3097 1772 3097 
Q 1472 3097 1187 3025 
Q 903 2953 641 2809 
L 641 3341 
Q 956 3463 1253 3523 
Q 1550 3584 1831 3584 
Q 2591 3584 2966 3190 
Q 3341 2797 3341 1997 
z
" transform="scale(0.015625)"/>
      <path id="DejaVuSans-72" d="M 2631 2963 
Q 2534 3019 2420 3045 
Q 2306 3072 2169 3072 
Q 1681 3072 1420 2755 
Q 1159 2438 1159 1844 
L 1159 0 
L 581 0 
L 581 3500 
L 1159 3500 
L 1159 2956 
Q 1341 3275 1631 3429 
Q 1922 3584 2338 3584 
Q 2397 3584 2469 3576 
Q 2541 3569 2628 3553 
L 2631 2963 
z
" transform="scale(0.015625)"/>
      <path id="DejaVuSans-74" d="M 1172 4494 
L 1172 3500 
L 2356 3500 
L 2356 3053 
L 1172 3053 
L 1172 1153 
Q 1172 725 1289 603 
Q 1406 481 1766 481 
L 2356 481 
L 2356 0 
L 1766 0 
Q 1100 0 847 248 
Q 594 497 594 1153 
L 594 3053 
L 172 3053 
L 172 3500 
L 594 3500 
L 594 4494 
L 1172 4494 
z
" transform="scale(0.015625)"/>
      <path id="DejaVuSans-69" d="M 603 3500 
L 1178 3500 
L 1178 0 
L 603 0 
L 603 3500 
z
M 603 4863 
L 1178 4863 
L 1178 4134 
L 603 4134 
L 603 4863 
z
" transform="scale(0.015625)"/>
      <path id="DejaVuSans-6c" d="M 603 4863 
L 1178 4863 
L 1178 0 
L 603 0 
L 603 4863 
z
" transform="scale(0.015625)"/>
     </defs>
     <use xlink:href="#DejaVuSans-70"/>
     <use xlink:href="#DejaVuSans-61" x="63.476562"/>
     <use xlink:href="#DejaVuSans-72" x="124.755859"/>
     <use xlink:href="#DejaVuSans-74" x="165.869141"/>
     <use xlink:href="#DejaVuSans-69" x="205.078125"/>
     <use xlink:href="#DejaVuSans-61" x="232.861328"/>
     <use xlink:href="#DejaVuSans-6c" x="294.140625"/>
    </g>
   </g>
   <g id="text_3">
    <!-- partial -->
    <g style="fill: #2f3437" transform="translate(254.728259 77.221312) scale(0.08 -0.08)">
     <use xlink:href="#DejaVuSans-70"/>
     <use xlink:href="#DejaVuSans-61" x="63.476562"/>
     <use xlink:href="#DejaVuSans-72" x="124.755859"/>
     <use xlink:href="#DejaVuSans-74" x="165.869141"/>
     <use xlink:href="#DejaVuSans-69" x="205.078125"/>
     <use xlink:href="#DejaVuSans-61" x="232.861328"/>
     <use xlink:href="#DejaVuSans-6c" x="294.140625"/>
    </g>
   </g>
   <g id="text_4">
    <!-- strong -->
    <g style="fill: #18331f" transform="translate(334.591295 77.221312) scale(0.08 -0.08)">
     <defs>
      <path id="DejaVuSans-73" d="M 2834 3397 
L 2834 2853 
Q 2591 2978 2328 3040 
Q 2066 3103 1784 3103 
Q 1356 3103 1142 2972 
Q 928 2841 928 2578 
Q 928 2378 1081 2264 
Q 1234 2150 1697 2047 
L 1894 2003 
Q 2506 1872 2764 1633 
Q 3022 1394 3022 966 
Q 3022 478 2636 193 
Q 2250 -91 1575 -91 
Q 1294 -91 989 -36 
Q 684 19 347 128 
L 347 722 
Q 666 556 975 473 
Q 1284 391 1588 391 
Q 1994 391 2212 530 
Q 2431 669 2431 922 
Q 2431 1156 2273 1281 
Q 2116 1406 1581 1522 
L 1381 1569 
Q 847 1681 609 1914 
Q 372 2147 372 2553 
Q 372 3047 722 3315 
Q 1072 3584 1716 3584 
Q 2034 3584 2315 3537 
Q 2597 3491 2834 3397 
z
" transform="scale(0.015625)"/>
      <path id="DejaVuSans-6f" d="M 1959 3097 
Q 1497 3097 1228 2736 
Q 959 2375 959 1747 
Q 959 1119 1226 758 
Q 1494 397 1959 397 
Q 2419 397 2687 759 
Q 2956 1122 2956 1747 
Q 2956 2369 2687 2733 
Q 2419 3097 1959 3097 
z
M 1959 3584 
Q 2709 3584 3137 3096 
Q 3566 2609 3566 1747 
Q 3566 888 3137 398 
Q 2709 -91 1959 -91 
Q 1206 -91 779 398 
Q 353 888 353 1747 
Q 353 2609 779 3096 
Q 1206 3584 1959 3584 
z
" transform="scale(0.015625)"/>
      <path id="DejaVuSans-6e" d="M 3513 2113 
L 3513 0 
L 2938 0 
L 2938 2094 
Q 2938 2591 2744 2837 
Q 2550 3084 2163 3084 
Q 1697 3084 1428 2787 
Q 1159 2491 1159 1978 
L 1159 0 
L 581 0 
L 581 3500 
L 1159 3500 
L 1159 2956 
Q 1366 3272 1645 3428 
Q 1925 3584 2291 3584 
Q 2894 3584 3203 3211 
Q 3513 2838 3513 2113 
z
" transform="scale(0.015625)"/>
      <path id="DejaVuSans-67" d="M 2906 1791 
Q 2906 2416 2648 2759 
Q 2391 3103 1925 3103 
Q 1463 3103 1205 2759 
Q 947 2416 947 1791 
Q 947 1169 1205 825 
Q 1463 481 1925 481 
Q 2391 481 2648 825 
Q 2906 1169 2906 1791 
z
M 3481 434 
Q 3481 -459 3084 -895 
Q 2688 -1331 1869 -1331 
Q 1566 -1331 1297 -1286 
Q 1028 -1241 775 -1147 
L 775 -588 
Q 1028 -725 1275 -790 
Q 1522 -856 1778 -856 
Q 2344 -856 2625 -561 
Q 2906 -266 2906 331 
L 2906 616 
Q 2728 306 2450 153 
Q 2172 0 1784 0 
Q 1141 0 747 490 
Q 353 981 353 1791 
Q 353 2603 747 3093 
Q 1141 3584 1784 3584 
Q 2172 3584 2450 3431 
Q 2728 3278 2906 2969 
L 2906 3500 
L 3481 3500 
L 3481 434 
z
" transform="scale(0.015625)"/>
     </defs>
     <use xlink:href="#DejaVuSans-73"/>
     <use xlink:href="#DejaVuSans-74" x="52.099609"/>
     <use xlink:href="#DejaVuSans-72" x="91.308594"/>
     <use xlink:href="#DejaVuSans-6f" x="130.171875"/>
     <use xlink:href="#DejaVuSans-6e" x="191.353516"/>
     <use xlink:href="#DejaVuSans-67" x="254.732422"/>
    </g>
   </g>
   <g id="text_5">
    <!-- strong -->
    <g style="fill: #18331f" transform="translate(414.30558 77.221312) scale(0.08 -0.08)">
     <use xlink:href="#DejaVuSans-73"/>
     <use xlink:href="#DejaVuSans-74" x="52.099609"/>
     <use xlink:href="#DejaVuSans-72" x="91.308594"/>
     <use xlink:href="#DejaVuSans-6f" x="130.171875"/>
     <use xlink:href="#DejaVuSans-6e" x="191.353516"/>
     <use xlink:href="#DejaVuSans-67" x="254.732422"/>
    </g>
   </g>
   <g id="text_6">
    <!-- strong -->
    <g style="fill: #18331f" transform="translate(494.019866 77.221312) scale(0.08 -0.08)">
     <use xlink:href="#DejaVuSans-73"/>
     <use xlink:href="#DejaVuSans-74" x="52.099609"/>
     <use xlink:href="#DejaVuSans-72" x="91.308594"/>
     <use xlink:href="#DejaVuSans-6f" x="130.171875"/>
     <use xlink:href="#DejaVuSans-6e" x="191.353516"/>
     <use xlink:href="#DejaVuSans-67" x="254.732422"/>
    </g>
   </g>
   <g id="text_7">
    <!-- partial -->
    <g style="fill: #2f3437" transform="translate(573.585402 77.221312) scale(0.08 -0.08)">
     <use xlink:href="#DejaVuSans-70"/>
     <use xlink:href="#DejaVuSans-61" x="63.476562"/>
     <use xlink:href="#DejaVuSans-72" x="124.755859"/>
     <use xlink:href="#DejaVuSans-74" x="165.869141"/>
     <use xlink:href="#DejaVuSans-69" x="205.078125"/>
     <use xlink:href="#DejaVuSans-61" x="232.861328"/>
     <use xlink:href="#DejaVuSans-6c" x="294.140625"/>
    </g>
   </g>
   <g id="text_8">
    <!-- partial -->
    <g style="fill: #2f3437" transform="translate(653.299687 77.221312) scale(0.08 -0.08)">
     <use xlink:href="#DejaVuSans-70"/>
     <use xlink:href="#DejaVuSans-61" x="63.476562"/>
     <use xlink:href="#DejaVuSans-72" x="124.755859"/>
     <use xlink:href="#DejaVuSans-74" x="165.869141"/>
     <use xlink:href="#DejaVuSans-69" x="205.078125"/>
     <use xlink:href="#DejaVuSans-61" x="232.861328"/>
     <use xlink:href="#DejaVuSans-6c" x="294.140625"/>
    </g>
   </g>
   <g id="text_9">
    <!-- Matching pretrained -->
    <g transform="translate(20.545312 122.086125) scale(0.1 -0.1)">
     <defs>
      <path id="DejaVuSans-Bold-4d" d="M 588 4666 
L 2119 4666 
L 3181 2169 
L 4250 4666 
L 5778 4666 
L 5778 0 
L 4641 0 
L 4641 3413 
L 3566 897 
L 2803 897 
L 1728 3413 
L 1728 0 
L 588 0 
L 588 4666 
z
" transform="scale(0.015625)"/>
      <path id="DejaVuSans-Bold-63" d="M 3366 3391 
L 3366 2478 
Q 3138 2634 2908 2709 
Q 2678 2784 2431 2784 
Q 1963 2784 1702 2511 
Q 1441 2238 1441 1747 
Q 1441 1256 1702 982 
Q 1963 709 2431 709 
Q 2694 709 2930 787 
Q 3166 866 3366 1019 
L 3366 103 
Q 3103 6 2833 -42 
Q 2563 -91 2291 -91 
Q 1344 -91 809 395 
Q 275 881 275 1747 
Q 275 2613 809 3098 
Q 1344 3584 2291 3584 
Q 2566 3584 2833 3536 
Q 3100 3488 3366 3391 
z
" transform="scale(0.015625)"/>
      <path id="DejaVuSans-Bold-68" d="M 4056 2131 
L 4056 0 
L 2931 0 
L 2931 347 
L 2931 1625 
Q 2931 2084 2911 2256 
Q 2891 2428 2841 2509 
Q 2775 2619 2662 2680 
Q 2550 2741 2406 2741 
Q 2056 2741 1856 2470 
Q 1656 2200 1656 1722 
L 1656 0 
L 538 0 
L 538 4863 
L 1656 4863 
L 1656 2988 
Q 1909 3294 2193 3439 
Q 2478 3584 2822 3584 
Q 3428 3584 3742 3212 
Q 4056 2841 4056 2131 
z
" transform="scale(0.015625)"/>
      <path id="DejaVuSans-Bold-72" d="M 3138 2547 
Q 2991 2616 2845 2648 
Q 2700 2681 2553 2681 
Q 2122 2681 1889 2404 
Q 1656 2128 1656 1613 
L 1656 0 
L 538 0 
L 538 3500 
L 1656 3500 
L 1656 2925 
Q 1872 3269 2151 3426 
Q 2431 3584 2822 3584 
Q 2878 3584 2943 3579 
Q 3009 3575 3134 3559 
L 3138 2547 
z
" transform="scale(0.015625)"/>
      <path id="DejaVuSans-Bold-64" d="M 2919 2988 
L 2919 4863 
L 4044 4863 
L 4044 0 
L 2919 0 
L 2919 506 
Q 2688 197 2409 53 
Q 2131 -91 1766 -91 
Q 1119 -91 703 423 
Q 288 938 288 1747 
Q 288 2556 703 3070 
Q 1119 3584 1766 3584 
Q 2128 3584 2408 3439 
Q 2688 3294 2919 2988 
z
M 2181 722 
Q 2541 722 2730 984 
Q 2919 1247 2919 1747 
Q 2919 2247 2730 2509 
Q 2541 2772 2181 2772 
Q 1825 2772 1636 2509 
Q 1447 2247 1447 1747 
Q 1447 1247 1636 984 
Q 1825 722 2181 722 
z
" transform="scale(0.015625)"/>
     </defs>
     <use xlink:href="#DejaVuSans-Bold-4d"/>
     <use xlink:href="#DejaVuSans-Bold-61" x="99.511719"/>
     <use xlink:href="#DejaVuSans-Bold-74" x="166.992188"/>
     <use xlink:href="#DejaVuSans-Bold-63" x="214.794922"/>
     <use xlink:href="#DejaVuSans-Bold-68" x="274.072266"/>
     <use xlink:href="#DejaVuSans-Bold-69" x="345.263672"/>
     <use xlink:href="#DejaVuSans-Bold-6e" x="379.541016"/>
     <use xlink:href="#DejaVuSans-Bold-67" x="450.732422"/>
     <use xlink:href="#DejaVuSans-Bold-20" x="522.314453"/>
     <use xlink:href="#DejaVuSans-Bold-70" x="557.128906"/>
     <use xlink:href="#DejaVuSans-Bold-72" x="628.710938"/>
     <use xlink:href="#DejaVuSans-Bold-65" x="678.027344"/>
     <use xlink:href="#DejaVuSans-Bold-74" x="745.849609"/>
     <use xlink:href="#DejaVuSans-Bold-72" x="793.652344"/>
     <use xlink:href="#DejaVuSans-Bold-61" x="842.96875"/>
     <use xlink:href="#DejaVuSans-Bold-69" x="910.449219"/>
     <use xlink:href="#DejaVuSans-Bold-6e" x="944.726562"/>
     <use xlink:href="#DejaVuSans-Bold-65" x="1015.917969"/>
     <use xlink:href="#DejaVuSans-Bold-64" x="1083.740234"/>
    </g>
   </g>
   <g id="text_10">
    <!-- partial -->
    <g style="fill: #2f3437" transform="translate(175.013973 121.573312) scale(0.08 -0.08)">
     <use xlink:href="#DejaVuSans-70"/>
     <use xlink:href="#DejaVuSans-61" x="63.476562"/>
     <use xlink:href="#DejaVuSans-72" x="124.755859"/>
     <use xlink:href="#DejaVuSans-74" x="165.869141"/>
     <use xlink:href="#DejaVuSans-69" x="205.078125"/>
     <use xlink:href="#DejaVuSans-61" x="232.861328"/>
     <use xlink:href="#DejaVuSans-6c" x="294.140625"/>
    </g>
   </g>
   <g id="text_11">
    <!-- open -->
    <g style="fill: #2f3437" transform="translate(257.622009 121.573312) scale(0.08 -0.08)">
     <defs>
      <path id="DejaVuSans-65" d="M 3597 1894 
L 3597 1613 
L 953 1613 
Q 991 1019 1311 708 
Q 1631 397 2203 397 
Q 2534 397 2845 478 
Q 3156 559 3463 722 
L 3463 178 
Q 3153 47 2828 -22 
Q 2503 -91 2169 -91 
Q 1331 -91 842 396 
Q 353 884 353 1716 
Q 353 2575 817 3079 
Q 1281 3584 2069 3584 
Q 2775 3584 3186 3129 
Q 3597 2675 3597 1894 
z
M 3022 2063 
Q 3016 2534 2758 2815 
Q 2500 3097 2075 3097 
Q 1594 3097 1305 2825 
Q 1016 2553 972 2059 
L 3022 2063 
z
" transform="scale(0.015625)"/>
     </defs>
     <use xlink:href="#DejaVuSans-6f"/>
     <use xlink:href="#DejaVuSans-70" x="61.181641"/>
     <use xlink:href="#DejaVuSans-65" x="124.658203"/>
     <use xlink:href="#DejaVuSans-6e" x="186.181641"/>
    </g>
   </g>
   <g id="text_12">
    <!-- strong -->
    <g style="fill: #18331f" transform="translate(334.591295 121.573312) scale(0.08 -0.08)">
     <use xlink:href="#DejaVuSans-73"/>
     <use xlink:href="#DejaVuSans-74" x="52.099609"/>
     <use xlink:href="#DejaVuSans-72" x="91.308594"/>
     <use xlink:href="#DejaVuSans-6f" x="130.171875"/>
     <use xlink:href="#DejaVuSans-6e" x="191.353516"/>
     <use xlink:href="#DejaVuSans-67" x="254.732422"/>
    </g>
   </g>
   <g id="text_13">
    <!-- partial -->
    <g style="fill: #2f3437" transform="translate(414.15683 121.573312) scale(0.08 -0.08)">
     <use xlink:href="#DejaVuSans-70"/>
     <use xlink:href="#DejaVuSans-61" x="63.476562"/>
     <use xlink:href="#DejaVuSans-72" x="124.755859"/>
     <use xlink:href="#DejaVuSans-74" x="165.869141"/>
     <use xlink:href="#DejaVuSans-69" x="205.078125"/>
     <use xlink:href="#DejaVuSans-61" x="232.861328"/>
     <use xlink:href="#DejaVuSans-6c" x="294.140625"/>
    </g>
   </g>
   <g id="text_14">
    <!-- strong -->
    <g style="fill: #18331f" transform="translate(494.019866 121.573312) scale(0.08 -0.08)">
     <use xlink:href="#DejaVuSans-73"/>
     <use xlink:href="#DejaVuSans-74" x="52.099609"/>
     <use xlink:href="#DejaVuSans-72" x="91.308594"/>
     <use xlink:href="#DejaVuSans-6f" x="130.171875"/>
     <use xlink:href="#DejaVuSans-6e" x="191.353516"/>
     <use xlink:href="#DejaVuSans-67" x="254.732422"/>
    </g>
   </g>
   <g id="text_15">
    <!-- open -->
    <g style="fill: #2f3437" transform="translate(576.479152 121.573312) scale(0.08 -0.08)">
     <use xlink:href="#DejaVuSans-6f"/>
     <use xlink:href="#DejaVuSans-70" x="61.181641"/>
     <use xlink:href="#DejaVuSans-65" x="124.658203"/>
     <use xlink:href="#DejaVuSans-6e" x="186.181641"/>
    </g>
   </g>
   <g id="text_16">
    <!-- partial -->
    <g style="fill: #2f3437" transform="translate(653.299687 121.573312) scale(0.08 -0.08)">
     <use xlink:href="#DejaVuSans-70"/>
     <use xlink:href="#DejaVuSans-61" x="63.476562"/>
     <use xlink:href="#DejaVuSans-72" x="124.755859"/>
     <use xlink:href="#DejaVuSans-74" x="165.869141"/>
     <use xlink:href="#DejaVuSans-69" x="205.078125"/>
     <use xlink:href="#DejaVuSans-61" x="232.861328"/>
     <use xlink:href="#DejaVuSans-6c" x="294.140625"/>
    </g>
   </g>
   <g id="text_17">
    <!-- L8H11 hub -->
    <g transform="translate(75.585938 166.477187) scale(0.1 -0.1)">
     <defs>
      <path id="DejaVuSans-Bold-4c" d="M 588 4666 
L 1791 4666 
L 1791 909 
L 3903 909 
L 3903 0 
L 588 0 
L 588 4666 
z
" transform="scale(0.015625)"/>
      <path id="DejaVuSans-Bold-38" d="M 2228 2088 
Q 1891 2088 1709 1903 
Q 1528 1719 1528 1375 
Q 1528 1031 1709 848 
Q 1891 666 2228 666 
Q 2563 666 2741 848 
Q 2919 1031 2919 1375 
Q 2919 1722 2741 1905 
Q 2563 2088 2228 2088 
z
M 1350 2484 
Q 925 2613 709 2878 
Q 494 3144 494 3541 
Q 494 4131 934 4440 
Q 1375 4750 2228 4750 
Q 3075 4750 3515 4442 
Q 3956 4134 3956 3541 
Q 3956 3144 3739 2878 
Q 3522 2613 3097 2484 
Q 3572 2353 3814 2058 
Q 4056 1763 4056 1313 
Q 4056 619 3595 264 
Q 3134 -91 2228 -91 
Q 1319 -91 855 264 
Q 391 619 391 1313 
Q 391 1763 633 2058 
Q 875 2353 1350 2484 
z
M 1631 3419 
Q 1631 3141 1786 2991 
Q 1941 2841 2228 2841 
Q 2509 2841 2662 2991 
Q 2816 3141 2816 3419 
Q 2816 3697 2662 3845 
Q 2509 3994 2228 3994 
Q 1941 3994 1786 3844 
Q 1631 3694 1631 3419 
z
" transform="scale(0.015625)"/>
      <path id="DejaVuSans-Bold-48" d="M 588 4666 
L 1791 4666 
L 1791 2888 
L 3566 2888 
L 3566 4666 
L 4769 4666 
L 4769 0 
L 3566 0 
L 3566 1978 
L 1791 1978 
L 1791 0 
L 588 0 
L 588 4666 
z
" transform="scale(0.015625)"/>
      <path id="DejaVuSans-Bold-31" d="M 750 831 
L 1813 831 
L 1813 3847 
L 722 3622 
L 722 4441 
L 1806 4666 
L 2950 4666 
L 2950 831 
L 4013 831 
L 4013 0 
L 750 0 
L 750 831 
z
" transform="scale(0.015625)"/>
      <path id="DejaVuSans-Bold-75" d="M 500 1363 
L 500 3500 
L 1625 3500 
L 1625 3150 
Q 1625 2866 1622 2436 
Q 1619 2006 1619 1863 
Q 1619 1441 1641 1255 
Q 1663 1069 1716 984 
Q 1784 875 1895 815 
Q 2006 756 2150 756 
Q 2500 756 2700 1025 
Q 2900 1294 2900 1772 
L 2900 3500 
L 4019 3500 
L 4019 0 
L 2900 0 
L 2900 506 
Q 2647 200 2364 54 
Q 2081 -91 1741 -91 
Q 1134 -91 817 281 
Q 500 653 500 1363 
z
" transform="scale(0.015625)"/>
      <path id="DejaVuSans-Bold-62" d="M 2400 722 
Q 2759 722 2948 984 
Q 3138 1247 3138 1747 
Q 3138 2247 2948 2509 
Q 2759 2772 2400 2772 
Q 2041 2772 1848 2508 
Q 1656 2244 1656 1747 
Q 1656 1250 1848 986 
Q 2041 722 2400 722 
z
M 1656 2988 
Q 1888 3294 2169 3439 
Q 2450 3584 2816 3584 
Q 3463 3584 3878 3070 
Q 4294 2556 4294 1747 
Q 4294 938 3878 423 
Q 3463 -91 2816 -91 
Q 2450 -91 2169 54 
Q 1888 200 1656 506 
L 1656 0 
L 538 0 
L 538 4863 
L 1656 4863 
L 1656 2988 
z
" transform="scale(0.015625)"/>
     </defs>
     <use xlink:href="#DejaVuSans-Bold-4c"/>
     <use xlink:href="#DejaVuSans-Bold-38" x="63.720703"/>
     <use xlink:href="#DejaVuSans-Bold-48" x="133.300781"/>
     <use xlink:href="#DejaVuSans-Bold-31" x="216.992188"/>
     <use xlink:href="#DejaVuSans-Bold-31" x="286.572266"/>
     <use xlink:href="#DejaVuSans-Bold-20" x="356.152344"/>
     <use xlink:href="#DejaVuSans-Bold-68" x="390.966797"/>
     <use xlink:href="#DejaVuSans-Bold-75" x="462.158203"/>
     <use xlink:href="#DejaVuSans-Bold-62" x="533.349609"/>
    </g>
   </g>
   <g id="text_18">
    <!-- open -->
    <g style="fill: #2f3437" transform="translate(177.907723 165.925312) scale(0.08 -0.08)">
     <use xlink:href="#DejaVuSans-6f"/>
     <use xlink:href="#DejaVuSans-70" x="61.181641"/>
     <use xlink:href="#DejaVuSans-65" x="124.658203"/>
     <use xlink:href="#DejaVuSans-6e" x="186.181641"/>
    </g>
   </g>
   <g id="text_19">
    <!-- open -->
    <g style="fill: #2f3437" transform="translate(257.622009 165.925312) scale(0.08 -0.08)">
     <use xlink:href="#DejaVuSans-6f"/>
     <use xlink:href="#DejaVuSans-70" x="61.181641"/>
     <use xlink:href="#DejaVuSans-65" x="124.658203"/>
     <use xlink:href="#DejaVuSans-6e" x="186.181641"/>
    </g>
   </g>
   <g id="text_20">
    <!-- strong -->
    <g style="fill: #18331f" transform="translate(334.591295 165.925312) scale(0.08 -0.08)">
     <use xlink:href="#DejaVuSans-73"/>
     <use xlink:href="#DejaVuSans-74" x="52.099609"/>
     <use xlink:href="#DejaVuSans-72" x="91.308594"/>
     <use xlink:href="#DejaVuSans-6f" x="130.171875"/>
     <use xlink:href="#DejaVuSans-6e" x="191.353516"/>
     <use xlink:href="#DejaVuSans-67" x="254.732422"/>
    </g>
   </g>
   <g id="text_21">
    <!-- partial -->
    <g style="fill: #2f3437" transform="translate(414.15683 165.925312) scale(0.08 -0.08)">
     <use xlink:href="#DejaVuSans-70"/>
     <use xlink:href="#DejaVuSans-61" x="63.476562"/>
     <use xlink:href="#DejaVuSans-72" x="124.755859"/>
     <use xlink:href="#DejaVuSans-74" x="165.869141"/>
     <use xlink:href="#DejaVuSans-69" x="205.078125"/>
     <use xlink:href="#DejaVuSans-61" x="232.861328"/>
     <use xlink:href="#DejaVuSans-6c" x="294.140625"/>
    </g>
   </g>
   <g id="text_22">
    <!-- strong -->
    <g style="fill: #18331f" transform="translate(494.019866 165.925312) scale(0.08 -0.08)">
     <use xlink:href="#DejaVuSans-73"/>
     <use xlink:href="#DejaVuSans-74" x="52.099609"/>
     <use xlink:href="#DejaVuSans-72" x="91.308594"/>
     <use xlink:href="#DejaVuSans-6f" x="130.171875"/>
     <use xlink:href="#DejaVuSans-6e" x="191.353516"/>
     <use xlink:href="#DejaVuSans-67" x="254.732422"/>
    </g>
   </g>
   <g id="text_23">
    <!-- partial -->
    <g style="fill: #2f3437" transform="translate(573.585402 165.925312) scale(0.08 -0.08)">
     <use xlink:href="#DejaVuSans-70"/>
     <use xlink:href="#DejaVuSans-61" x="63.476562"/>
     <use xlink:href="#DejaVuSans-72" x="124.755859"/>
     <use xlink:href="#DejaVuSans-74" x="165.869141"/>
     <use xlink:href="#DejaVuSans-69" x="205.078125"/>
     <use xlink:href="#DejaVuSans-61" x="232.861328"/>
     <use xlink:href="#DejaVuSans-6c" x="294.140625"/>
    </g>
   </g>
   <g id="text_24">
    <!-- open -->
    <g style="fill: #2f3437" transform="translate(656.193437 165.925312) scale(0.08 -0.08)">
     <use xlink:href="#DejaVuSans-6f"/>
     <use xlink:href="#DejaVuSans-70" x="61.181641"/>
     <use xlink:href="#DejaVuSans-65" x="124.658203"/>
     <use xlink:href="#DejaVuSans-6e" x="186.181641"/>
    </g>
   </g>
   <g id="text_25">
    <!-- Rows found by index -->
    <g transform="translate(18.642187 210.790125) scale(0.1 -0.1)">
     <defs>
      <path id="DejaVuSans-Bold-52" d="M 2297 2597 
Q 2675 2597 2839 2737 
Q 3003 2878 3003 3200 
Q 3003 3519 2839 3656 
Q 2675 3794 2297 3794 
L 1791 3794 
L 1791 2597 
L 2297 2597 
z
M 1791 1766 
L 1791 0 
L 588 0 
L 588 4666 
L 2425 4666 
Q 3347 4666 3776 4356 
Q 4206 4047 4206 3378 
Q 4206 2916 3982 2619 
Q 3759 2322 3309 2181 
Q 3556 2125 3751 1926 
Q 3947 1728 4147 1325 
L 4800 0 
L 3519 0 
L 2950 1159 
Q 2778 1509 2601 1637 
Q 2425 1766 2131 1766 
L 1791 1766 
z
" transform="scale(0.015625)"/>
      <path id="DejaVuSans-Bold-66" d="M 2841 4863 
L 2841 4128 
L 2222 4128 
Q 1984 4128 1890 4042 
Q 1797 3956 1797 3744 
L 1797 3500 
L 2753 3500 
L 2753 2700 
L 1797 2700 
L 1797 0 
L 678 0 
L 678 2700 
L 122 2700 
L 122 3500 
L 678 3500 
L 678 3744 
Q 678 4316 997 4589 
Q 1316 4863 1984 4863 
L 2841 4863 
z
" transform="scale(0.015625)"/>
      <path id="DejaVuSans-Bold-79" d="M 78 3500 
L 1197 3500 
L 2138 1125 
L 2938 3500 
L 4056 3500 
L 2584 -331 
Q 2363 -916 2067 -1148 
Q 1772 -1381 1288 -1381 
L 641 -1381 
L 641 -647 
L 991 -647 
Q 1275 -647 1404 -556 
Q 1534 -466 1606 -231 
L 1638 -134 
L 78 3500 
z
" transform="scale(0.015625)"/>
      <path id="DejaVuSans-Bold-78" d="M 1422 1791 
L 159 3500 
L 1344 3500 
L 2059 2463 
L 2784 3500 
L 3969 3500 
L 2706 1797 
L 4031 0 
L 2847 0 
L 2059 1106 
L 1281 0 
L 97 0 
L 1422 1791 
z
" transform="scale(0.015625)"/>
     </defs>
     <use xlink:href="#DejaVuSans-Bold-52"/>
     <use xlink:href="#DejaVuSans-Bold-6f" x="77.001953"/>
     <use xlink:href="#DejaVuSans-Bold-77" x="145.703125"/>
     <use xlink:href="#DejaVuSans-Bold-73" x="238.085938"/>
     <use xlink:href="#DejaVuSans-Bold-20" x="297.607422"/>
     <use xlink:href="#DejaVuSans-Bold-66" x="332.421875"/>
     <use xlink:href="#DejaVuSans-Bold-6f" x="375.927734"/>
     <use xlink:href="#DejaVuSans-Bold-75" x="444.628906"/>
     <use xlink:href="#DejaVuSans-Bold-6e" x="515.820312"/>
     <use xlink:href="#DejaVuSans-Bold-64" x="587.011719"/>
     <use xlink:href="#DejaVuSans-Bold-20" x="658.59375"/>
     <use xlink:href="#DejaVuSans-Bold-62" x="693.408203"/>
     <use xlink:href="#DejaVuSans-Bold-79" x="764.990234"/>
     <use xlink:href="#DejaVuSans-Bold-20" x="830.175781"/>
     <use xlink:href="#DejaVuSans-Bold-69" x="864.990234"/>
     <use xlink:href="#DejaVuSans-Bold-6e" x="899.267578"/>
     <use xlink:href="#DejaVuSans-Bold-64" x="970.458984"/>
     <use xlink:href="#DejaVuSans-Bold-65" x="1042.041016"/>
     <use xlink:href="#DejaVuSans-Bold-78" x="1109.863281"/>
    </g>
   </g>
   <g id="text_26">
    <!-- strong -->
    <g style="fill: #18331f" transform="translate(175.162723 210.277312) scale(0.08 -0.08)">
     <use xlink:href="#DejaVuSans-73"/>
     <use xlink:href="#DejaVuSans-74" x="52.099609"/>
     <use xlink:href="#DejaVuSans-72" x="91.308594"/>
     <use xlink:href="#DejaVuSans-6f" x="130.171875"/>
     <use xlink:href="#DejaVuSans-6e" x="191.353516"/>
     <use xlink:href="#DejaVuSans-67" x="254.732422"/>
    </g>
   </g>
   <g id="text_27">
    <!-- open -->
    <g style="fill: #2f3437" transform="translate(257.622009 210.277312) scale(0.08 -0.08)">
     <use xlink:href="#DejaVuSans-6f"/>
     <use xlink:href="#DejaVuSans-70" x="61.181641"/>
     <use xlink:href="#DejaVuSans-65" x="124.658203"/>
     <use xlink:href="#DejaVuSans-6e" x="186.181641"/>
    </g>
   </g>
   <g id="text_28">
    <!-- open -->
    <g style="fill: #2f3437" transform="translate(337.336295 210.277312) scale(0.08 -0.08)">
     <use xlink:href="#DejaVuSans-6f"/>
     <use xlink:href="#DejaVuSans-70" x="61.181641"/>
     <use xlink:href="#DejaVuSans-65" x="124.658203"/>
     <use xlink:href="#DejaVuSans-6e" x="186.181641"/>
    </g>
   </g>
   <g id="text_29">
    <!-- partial -->
    <g style="fill: #2f3437" transform="translate(414.15683 210.277312) scale(0.08 -0.08)">
     <use xlink:href="#DejaVuSans-70"/>
     <use xlink:href="#DejaVuSans-61" x="63.476562"/>
     <use xlink:href="#DejaVuSans-72" x="124.755859"/>
     <use xlink:href="#DejaVuSans-74" x="165.869141"/>
     <use xlink:href="#DejaVuSans-69" x="205.078125"/>
     <use xlink:href="#DejaVuSans-61" x="232.861328"/>
     <use xlink:href="#DejaVuSans-6c" x="294.140625"/>
    </g>
   </g>
   <g id="text_30">
    <!-- strong -->
    <g style="fill: #18331f" transform="translate(494.019866 210.277312) scale(0.08 -0.08)">
     <use xlink:href="#DejaVuSans-73"/>
     <use xlink:href="#DejaVuSans-74" x="52.099609"/>
     <use xlink:href="#DejaVuSans-72" x="91.308594"/>
     <use xlink:href="#DejaVuSans-6f" x="130.171875"/>
     <use xlink:href="#DejaVuSans-6e" x="191.353516"/>
     <use xlink:href="#DejaVuSans-67" x="254.732422"/>
    </g>
   </g>
   <g id="text_31">
    <!-- strong -->
    <g style="fill: #18331f" transform="translate(573.734152 210.277312) scale(0.08 -0.08)">
     <use xlink:href="#DejaVuSans-73"/>
     <use xlink:href="#DejaVuSans-74" x="52.099609"/>
     <use xlink:href="#DejaVuSans-72" x="91.308594"/>
     <use xlink:href="#DejaVuSans-6f" x="130.171875"/>
     <use xlink:href="#DejaVuSans-6e" x="191.353516"/>
     <use xlink:href="#DejaVuSans-67" x="254.732422"/>
    </g>
   </g>
   <g id="text_32">
    <!-- partial -->
    <g style="fill: #2f3437" transform="translate(653.299687 210.277312) scale(0.08 -0.08)">
     <use xlink:href="#DejaVuSans-70"/>
     <use xlink:href="#DejaVuSans-61" x="63.476562"/>
     <use xlink:href="#DejaVuSans-72" x="124.755859"/>
     <use xlink:href="#DejaVuSans-74" x="165.869141"/>
     <use xlink:href="#DejaVuSans-69" x="205.078125"/>
     <use xlink:href="#DejaVuSans-61" x="232.861328"/>
     <use xlink:href="#DejaVuSans-6c" x="294.140625"/>
    </g>
   </g>
   <g id="text_33">
    <!-- Wide-table collapse -->
    <g transform="translate(24.854687 255.181187) scale(0.1 -0.1)">
     <defs>
      <path id="DejaVuSans-Bold-57" d="M 191 4666 
L 1344 4666 
L 2150 1275 
L 2950 4666 
L 4109 4666 
L 4909 1275 
L 5716 4666 
L 6859 4666 
L 5759 0 
L 4372 0 
L 3525 3547 
L 2688 0 
L 1300 0 
L 191 4666 
z
" transform="scale(0.015625)"/>
     </defs>
     <use xlink:href="#DejaVuSans-Bold-57"/>
     <use xlink:href="#DejaVuSans-Bold-69" x="110.302734"/>
     <use xlink:href="#DejaVuSans-Bold-64" x="144.580078"/>
     <use xlink:href="#DejaVuSans-Bold-65" x="216.162109"/>
     <use xlink:href="#DejaVuSans-Bold-2d" x="283.984375"/>
     <use xlink:href="#DejaVuSans-Bold-74" x="325.488281"/>
     <use xlink:href="#DejaVuSans-Bold-61" x="373.291016"/>
     <use xlink:href="#DejaVuSans-Bold-62" x="440.771484"/>
     <use xlink:href="#DejaVuSans-Bold-6c" x="512.353516"/>
     <use xlink:href="#DejaVuSans-Bold-65" x="546.630859"/>
     <use xlink:href="#DejaVuSans-Bold-20" x="614.453125"/>
     <use xlink:href="#DejaVuSans-Bold-63" x="649.267578"/>
     <use xlink:href="#DejaVuSans-Bold-6f" x="708.544922"/>
     <use xlink:href="#DejaVuSans-Bold-6c" x="777.246094"/>
     <use xlink:href="#DejaVuSans-Bold-6c" x="811.523438"/>
     <use xlink:href="#DejaVuSans-Bold-61" x="845.800781"/>
     <use xlink:href="#DejaVuSans-Bold-70" x="913.28125"/>
     <use xlink:href="#DejaVuSans-Bold-73" x="984.863281"/>
     <use xlink:href="#DejaVuSans-Bold-65" x="1044.384766"/>
    </g>
   </g>
   <g id="text_34">
    <!-- strong -->
    <g style="fill: #18331f" transform="translate(175.162723 254.629312) scale(0.08 -0.08)">
     <use xlink:href="#DejaVuSans-73"/>
     <use xlink:href="#DejaVuSans-74" x="52.099609"/>
     <use xlink:href="#DejaVuSans-72" x="91.308594"/>
     <use xlink:href="#DejaVuSans-6f" x="130.171875"/>
     <use xlink:href="#DejaVuSans-6e" x="191.353516"/>
     <use xlink:href="#DejaVuSans-67" x="254.732422"/>
    </g>
   </g>
   <g id="text_35">
    <!-- open -->
    <g style="fill: #2f3437" transform="translate(257.622009 254.629312) scale(0.08 -0.08)">
     <use xlink:href="#DejaVuSans-6f"/>
     <use xlink:href="#DejaVuSans-70" x="61.181641"/>
     <use xlink:href="#DejaVuSans-65" x="124.658203"/>
     <use xlink:href="#DejaVuSans-6e" x="186.181641"/>
    </g>
   </g>
   <g id="text_36">
    <!-- open -->
    <g style="fill: #2f3437" transform="translate(337.336295 254.629312) scale(0.08 -0.08)">
     <use xlink:href="#DejaVuSans-6f"/>
     <use xlink:href="#DejaVuSans-70" x="61.181641"/>
     <use xlink:href="#DejaVuSans-65" x="124.658203"/>
     <use xlink:href="#DejaVuSans-6e" x="186.181641"/>
    </g>
   </g>
   <g id="text_37">
    <!-- open -->
    <g style="fill: #2f3437" transform="translate(417.05058 254.629312) scale(0.08 -0.08)">
     <use xlink:href="#DejaVuSans-6f"/>
     <use xlink:href="#DejaVuSans-70" x="61.181641"/>
     <use xlink:href="#DejaVuSans-65" x="124.658203"/>
     <use xlink:href="#DejaVuSans-6e" x="186.181641"/>
    </g>
   </g>
   <g id="text_38">
    <!-- open -->
    <g style="fill: #2f3437" transform="translate(496.764866 254.629312) scale(0.08 -0.08)">
     <use xlink:href="#DejaVuSans-6f"/>
     <use xlink:href="#DejaVuSans-70" x="61.181641"/>
     <use xlink:href="#DejaVuSans-65" x="124.658203"/>
     <use xlink:href="#DejaVuSans-6e" x="186.181641"/>
    </g>
   </g>
   <g id="text_39">
    <!-- open -->
    <g style="fill: #2f3437" transform="translate(576.479152 254.629312) scale(0.08 -0.08)">
     <use xlink:href="#DejaVuSans-6f"/>
     <use xlink:href="#DejaVuSans-70" x="61.181641"/>
     <use xlink:href="#DejaVuSans-65" x="124.658203"/>
     <use xlink:href="#DejaVuSans-6e" x="186.181641"/>
    </g>
   </g>
   <g id="text_40">
    <!-- partial -->
    <g style="fill: #2f3437" transform="translate(653.299687 254.629312) scale(0.08 -0.08)">
     <use xlink:href="#DejaVuSans-70"/>
     <use xlink:href="#DejaVuSans-61" x="63.476562"/>
     <use xlink:href="#DejaVuSans-72" x="124.755859"/>
     <use xlink:href="#DejaVuSans-74" x="165.869141"/>
     <use xlink:href="#DejaVuSans-69" x="205.078125"/>
     <use xlink:href="#DejaVuSans-61" x="232.861328"/>
     <use xlink:href="#DejaVuSans-6c" x="294.140625"/>
    </g>
   </g>
   <g id="text_41">
    <!-- Matching heads causal -->
    <g transform="translate(7.2 299.494125) scale(0.1 -0.1)">
     <use xlink:href="#DejaVuSans-Bold-4d"/>
     <use xlink:href="#DejaVuSans-Bold-61" x="99.511719"/>
     <use xlink:href="#DejaVuSans-Bold-74" x="166.992188"/>
     <use xlink:href="#DejaVuSans-Bold-63" x="214.794922"/>
     <use xlink:href="#DejaVuSans-Bold-68" x="274.072266"/>
     <use xlink:href="#DejaVuSans-Bold-69" x="345.263672"/>
     <use xlink:href="#DejaVuSans-Bold-6e" x="379.541016"/>
     <use xlink:href="#DejaVuSans-Bold-67" x="450.732422"/>
     <use xlink:href="#DejaVuSans-Bold-20" x="522.314453"/>
     <use xlink:href="#DejaVuSans-Bold-68" x="557.128906"/>
     <use xlink:href="#DejaVuSans-Bold-65" x="628.320312"/>
     <use xlink:href="#DejaVuSans-Bold-61" x="696.142578"/>
     <use xlink:href="#DejaVuSans-Bold-64" x="763.623047"/>
     <use xlink:href="#DejaVuSans-Bold-73" x="835.205078"/>
     <use xlink:href="#DejaVuSans-Bold-20" x="894.726562"/>
     <use xlink:href="#DejaVuSans-Bold-63" x="929.541016"/>
     <use xlink:href="#DejaVuSans-Bold-61" x="988.818359"/>
     <use xlink:href="#DejaVuSans-Bold-75" x="1056.298828"/>
     <use xlink:href="#DejaVuSans-Bold-73" x="1127.490234"/>
     <use xlink:href="#DejaVuSans-Bold-61" x="1187.011719"/>
     <use xlink:href="#DejaVuSans-Bold-6c" x="1254.492188"/>
    </g>
   </g>
   <g id="text_42">
    <!-- partial -->
    <g style="fill: #2f3437" transform="translate(175.013973 298.981312) scale(0.08 -0.08)">
     <use xlink:href="#DejaVuSans-70"/>
     <use xlink:href="#DejaVuSans-61" x="63.476562"/>
     <use xlink:href="#DejaVuSans-72" x="124.755859"/>
     <use xlink:href="#DejaVuSans-74" x="165.869141"/>
     <use xlink:href="#DejaVuSans-69" x="205.078125"/>
     <use xlink:href="#DejaVuSans-61" x="232.861328"/>
     <use xlink:href="#DejaVuSans-6c" x="294.140625"/>
    </g>
   </g>
   <g id="text_43">
    <!-- open -->
    <g style="fill: #2f3437" transform="translate(257.622009 298.981312) scale(0.08 -0.08)">
     <use xlink:href="#DejaVuSans-6f"/>
     <use xlink:href="#DejaVuSans-70" x="61.181641"/>
     <use xlink:href="#DejaVuSans-65" x="124.658203"/>
     <use xlink:href="#DejaVuSans-6e" x="186.181641"/>
    </g>
   </g>
   <g id="text_44">
    <!-- partial -->
    <g style="fill: #2f3437" transform="translate(334.442545 298.981312) scale(0.08 -0.08)">
     <use xlink:href="#DejaVuSans-70"/>
     <use xlink:href="#DejaVuSans-61" x="63.476562"/>
     <use xlink:href="#DejaVuSans-72" x="124.755859"/>
     <use xlink:href="#DejaVuSans-74" x="165.869141"/>
     <use xlink:href="#DejaVuSans-69" x="205.078125"/>
     <use xlink:href="#DejaVuSans-61" x="232.861328"/>
     <use xlink:href="#DejaVuSans-6c" x="294.140625"/>
    </g>
   </g>
   <g id="text_45">
    <!-- partial -->
    <g style="fill: #2f3437" transform="translate(414.15683 298.981312) scale(0.08 -0.08)">
     <use xlink:href="#DejaVuSans-70"/>
     <use xlink:href="#DejaVuSans-61" x="63.476562"/>
     <use xlink:href="#DejaVuSans-72" x="124.755859"/>
     <use xlink:href="#DejaVuSans-74" x="165.869141"/>
     <use xlink:href="#DejaVuSans-69" x="205.078125"/>
     <use xlink:href="#DejaVuSans-61" x="232.861328"/>
     <use xlink:href="#DejaVuSans-6c" x="294.140625"/>
    </g>
   </g>
   <g id="text_46">
    <!-- strong -->
    <g style="fill: #18331f" transform="translate(494.019866 298.981312) scale(0.08 -0.08)">
     <use xlink:href="#DejaVuSans-73"/>
     <use xlink:href="#DejaVuSans-74" x="52.099609"/>
     <use xlink:href="#DejaVuSans-72" x="91.308594"/>
     <use xlink:href="#DejaVuSans-6f" x="130.171875"/>
     <use xlink:href="#DejaVuSans-6e" x="191.353516"/>
     <use xlink:href="#DejaVuSans-67" x="254.732422"/>
    </g>
   </g>
   <g id="text_47">
    <!-- strong -->
    <g style="fill: #18331f" transform="translate(573.734152 298.981312) scale(0.08 -0.08)">
     <use xlink:href="#DejaVuSans-73"/>
     <use xlink:href="#DejaVuSans-74" x="52.099609"/>
     <use xlink:href="#DejaVuSans-72" x="91.308594"/>
     <use xlink:href="#DejaVuSans-6f" x="130.171875"/>
     <use xlink:href="#DejaVuSans-6e" x="191.353516"/>
     <use xlink:href="#DejaVuSans-67" x="254.732422"/>
    </g>
   </g>
   <g id="text_48">
    <!-- open -->
    <g style="fill: #2f3437" transform="translate(656.193437 298.981312) scale(0.08 -0.08)">
     <use xlink:href="#DejaVuSans-6f"/>
     <use xlink:href="#DejaVuSans-70" x="61.181641"/>
     <use xlink:href="#DejaVuSans-65" x="124.658203"/>
     <use xlink:href="#DejaVuSans-6e" x="186.181641"/>
    </g>
   </g>
   <g id="text_49">
    <!-- behavior -->
    <g transform="translate(168.729447 45.819219) rotate(-25) scale(0.09 -0.09)">
     <defs>
      <path id="DejaVuSans-Bold-76" d="M 97 3500 
L 1216 3500 
L 2088 1081 
L 2956 3500 
L 4078 3500 
L 2700 0 
L 1472 0 
L 97 3500 
z
" transform="scale(0.015625)"/>
     </defs>
     <use xlink:href="#DejaVuSans-Bold-62"/>
     <use xlink:href="#DejaVuSans-Bold-65" x="71.582031"/>
     <use xlink:href="#DejaVuSans-Bold-68" x="139.404297"/>
     <use xlink:href="#DejaVuSans-Bold-61" x="210.595703"/>
     <use xlink:href="#DejaVuSans-Bold-76" x="278.076172"/>
     <use xlink:href="#DejaVuSans-Bold-69" x="343.261719"/>
     <use xlink:href="#DejaVuSans-Bold-6f" x="377.539062"/>
     <use xlink:href="#DejaVuSans-Bold-72" x="446.240234"/>
    </g>
   </g>
   <g id="text_50">
    <!-- probes -->
    <g transform="translate(252.809517 45.819219) rotate(-25) scale(0.09 -0.09)">
     <use xlink:href="#DejaVuSans-Bold-70"/>
     <use xlink:href="#DejaVuSans-Bold-72" x="71.582031"/>
     <use xlink:href="#DejaVuSans-Bold-6f" x="120.898438"/>
     <use xlink:href="#DejaVuSans-Bold-62" x="189.599609"/>
     <use xlink:href="#DejaVuSans-Bold-65" x="261.181641"/>
     <use xlink:href="#DejaVuSans-Bold-73" x="329.003906"/>
    </g>
   </g>
   <g id="text_51">
    <!-- alignment -->
    <g transform="translate(325.114323 45.755494) rotate(-25) scale(0.09 -0.09)">
     <defs>
      <path id="DejaVuSans-Bold-6d" d="M 3781 2919 
Q 3994 3244 4286 3414 
Q 4578 3584 4928 3584 
Q 5531 3584 5847 3212 
Q 6163 2841 6163 2131 
L 6163 0 
L 5038 0 
L 5038 1825 
Q 5041 1866 5042 1909 
Q 5044 1953 5044 2034 
Q 5044 2406 4934 2573 
Q 4825 2741 4581 2741 
Q 4263 2741 4089 2478 
Q 3916 2216 3909 1719 
L 3909 0 
L 2784 0 
L 2784 1825 
Q 2784 2406 2684 2573 
Q 2584 2741 2328 2741 
Q 2006 2741 1831 2477 
Q 1656 2213 1656 1722 
L 1656 0 
L 531 0 
L 531 3500 
L 1656 3500 
L 1656 2988 
Q 1863 3284 2130 3434 
Q 2397 3584 2719 3584 
Q 3081 3584 3359 3409 
Q 3638 3234 3781 2919 
z
" transform="scale(0.015625)"/>
     </defs>
     <use xlink:href="#DejaVuSans-Bold-61"/>
     <use xlink:href="#DejaVuSans-Bold-6c" x="67.480469"/>
     <use xlink:href="#DejaVuSans-Bold-69" x="101.757812"/>
     <use xlink:href="#DejaVuSans-Bold-67" x="136.035156"/>
     <use xlink:href="#DejaVuSans-Bold-6e" x="207.617188"/>
     <use xlink:href="#DejaVuSans-Bold-6d" x="278.808594"/>
     <use xlink:href="#DejaVuSans-Bold-65" x="383.007812"/>
     <use xlink:href="#DejaVuSans-Bold-6e" x="450.830078"/>
     <use xlink:href="#DejaVuSans-Bold-74" x="522.021484"/>
    </g>
   </g>
   <g id="text_52">
    <!-- Q-attn -->
    <g transform="translate(413.292733 45.819219) rotate(-25) scale(0.09 -0.09)">
     <defs>
      <path id="DejaVuSans-Bold-51" d="M 2847 -84 
L 2753 -84 
Q 1600 -84 959 553 
Q 319 1191 319 2328 
Q 319 3463 958 4106 
Q 1597 4750 2719 4750 
Q 3853 4750 4486 4112 
Q 5119 3475 5119 2328 
Q 5119 1541 4783 972 
Q 4447 403 3816 116 
L 4756 -934 
L 3609 -934 
L 2847 -84 
z
M 2719 3878 
Q 2169 3878 1866 3472 
Q 1563 3066 1563 2328 
Q 1563 1578 1859 1179 
Q 2156 781 2719 781 
Q 3272 781 3575 1187 
Q 3878 1594 3878 2328 
Q 3878 3066 3575 3472 
Q 3272 3878 2719 3878 
z
" transform="scale(0.015625)"/>
     </defs>
     <use xlink:href="#DejaVuSans-Bold-51"/>
     <use xlink:href="#DejaVuSans-Bold-2d" x="86.884766"/>
     <use xlink:href="#DejaVuSans-Bold-61" x="128.388672"/>
     <use xlink:href="#DejaVuSans-Bold-74" x="195.869141"/>
     <use xlink:href="#DejaVuSans-Bold-74" x="243.671875"/>
     <use xlink:href="#DejaVuSans-Bold-6e" x="291.474609"/>
    </g>
   </g>
   <g id="text_53">
    <!-- token-attn -->
    <g transform="translate(483.524774 45.819219) rotate(-25) scale(0.09 -0.09)">
     <defs>
      <path id="DejaVuSans-Bold-6b" d="M 538 4863 
L 1656 4863 
L 1656 2216 
L 2944 3500 
L 4244 3500 
L 2534 1894 
L 4378 0 
L 3022 0 
L 1656 1459 
L 1656 0 
L 538 0 
L 538 4863 
z
" transform="scale(0.015625)"/>
     </defs>
     <use xlink:href="#DejaVuSans-Bold-74"/>
     <use xlink:href="#DejaVuSans-Bold-6f" x="47.802734"/>
     <use xlink:href="#DejaVuSans-Bold-6b" x="116.503906"/>
     <use xlink:href="#DejaVuSans-Bold-65" x="180.382812"/>
     <use xlink:href="#DejaVuSans-Bold-6e" x="248.205078"/>
     <use xlink:href="#DejaVuSans-Bold-2d" x="319.396484"/>
     <use xlink:href="#DejaVuSans-Bold-61" x="360.900391"/>
     <use xlink:href="#DejaVuSans-Bold-74" x="428.380859"/>
     <use xlink:href="#DejaVuSans-Bold-74" x="476.183594"/>
     <use xlink:href="#DejaVuSans-Bold-6e" x="523.986328"/>
    </g>
   </g>
   <g id="text_54">
    <!-- ablation -->
    <g transform="translate(568.637184 45.819219) rotate(-25) scale(0.09 -0.09)">
     <use xlink:href="#DejaVuSans-Bold-61"/>
     <use xlink:href="#DejaVuSans-Bold-62" x="67.480469"/>
     <use xlink:href="#DejaVuSans-Bold-6c" x="139.0625"/>
     <use xlink:href="#DejaVuSans-Bold-61" x="173.339844"/>
     <use xlink:href="#DejaVuSans-Bold-74" x="240.820312"/>
     <use xlink:href="#DejaVuSans-Bold-69" x="288.623047"/>
     <use xlink:href="#DejaVuSans-Bold-6f" x="322.900391"/>
     <use xlink:href="#DejaVuSans-Bold-6e" x="391.601562"/>
    </g>
   </g>
   <g id="text_55">
    <!-- replication -->
    <g transform="translate(642.510458 45.819219) rotate(-25) scale(0.09 -0.09)">
     <use xlink:href="#DejaVuSans-Bold-72"/>
     <use xlink:href="#DejaVuSans-Bold-65" x="49.316406"/>
     <use xlink:href="#DejaVuSans-Bold-70" x="117.138672"/>
     <use xlink:href="#DejaVuSans-Bold-6c" x="188.720703"/>
     <use xlink:href="#DejaVuSans-Bold-69" x="222.998047"/>
     <use xlink:href="#DejaVuSans-Bold-63" x="257.275391"/>
     <use xlink:href="#DejaVuSans-Bold-61" x="316.552734"/>
     <use xlink:href="#DejaVuSans-Bold-74" x="384.033203"/>
     <use xlink:href="#DejaVuSans-Bold-69" x="431.835938"/>
     <use xlink:href="#DejaVuSans-Bold-6f" x="466.113281"/>
     <use xlink:href="#DejaVuSans-Bold-6e" x="534.814453"/>
    </g>
   </g>
   <g id="text_56">
    <!-- Evidence map for current hypotheses -->
    <g transform="translate(278.931205 17.837812) scale(0.14 -0.14)">
     <defs>
      <path id="DejaVuSans-Bold-45" d="M 588 4666 
L 3834 4666 
L 3834 3756 
L 1791 3756 
L 1791 2888 
L 3713 2888 
L 3713 1978 
L 1791 1978 
L 1791 909 
L 3903 909 
L 3903 0 
L 588 0 
L 588 4666 
z
" transform="scale(0.015625)"/>
     </defs>
     <use xlink:href="#DejaVuSans-Bold-45"/>
     <use xlink:href="#DejaVuSans-Bold-76" x="68.310547"/>
     <use xlink:href="#DejaVuSans-Bold-69" x="133.496094"/>
     <use xlink:href="#DejaVuSans-Bold-64" x="167.773438"/>
     <use xlink:href="#DejaVuSans-Bold-65" x="239.355469"/>
     <use xlink:href="#DejaVuSans-Bold-6e" x="307.177734"/>
     <use xlink:href="#DejaVuSans-Bold-63" x="378.369141"/>
     <use xlink:href="#DejaVuSans-Bold-65" x="437.646484"/>
     <use xlink:href="#DejaVuSans-Bold-20" x="505.46875"/>
     <use xlink:href="#DejaVuSans-Bold-6d" x="540.283203"/>
     <use xlink:href="#DejaVuSans-Bold-61" x="644.482422"/>
     <use xlink:href="#DejaVuSans-Bold-70" x="711.962891"/>
     <use xlink:href="#DejaVuSans-Bold-20" x="783.544922"/>
     <use xlink:href="#DejaVuSans-Bold-66" x="818.359375"/>
     <use xlink:href="#DejaVuSans-Bold-6f" x="861.865234"/>
     <use xlink:href="#DejaVuSans-Bold-72" x="930.566406"/>
     <use xlink:href="#DejaVuSans-Bold-20" x="979.882812"/>
     <use xlink:href="#DejaVuSans-Bold-63" x="1014.697266"/>
     <use xlink:href="#DejaVuSans-Bold-75" x="1073.974609"/>
     <use xlink:href="#DejaVuSans-Bold-72" x="1145.166016"/>
     <use xlink:href="#DejaVuSans-Bold-72" x="1194.482422"/>
     <use xlink:href="#DejaVuSans-Bold-65" x="1243.798828"/>
     <use xlink:href="#DejaVuSans-Bold-6e" x="1311.621094"/>
     <use xlink:href="#DejaVuSans-Bold-74" x="1382.8125"/>
     <use xlink:href="#DejaVuSans-Bold-20" x="1430.615234"/>
     <use xlink:href="#DejaVuSans-Bold-68" x="1465.429688"/>
     <use xlink:href="#DejaVuSans-Bold-79" x="1536.621094"/>
     <use xlink:href="#DejaVuSans-Bold-70" x="1601.806641"/>
     <use xlink:href="#DejaVuSans-Bold-6f" x="1673.388672"/>
     <use xlink:href="#DejaVuSans-Bold-74" x="1742.089844"/>
     <use xlink:href="#DejaVuSans-Bold-68" x="1789.892578"/>
     <use xlink:href="#DejaVuSans-Bold-65" x="1861.083984"/>
     <use xlink:href="#DejaVuSans-Bold-73" x="1928.90625"/>
     <use xlink:href="#DejaVuSans-Bold-65" x="1988.427734"/>
     <use xlink:href="#DejaVuSans-Bold-73" x="2056.25"/>
    </g>
   </g>
  </g>
 </g>
 <defs>
  <clipPath id="p68f8aea7d4">
   <rect x="148.033705" y="52.837812" width="558" height="266.112"/>
  </clipPath>
 </defs>
</svg>
