<?xml version="1.0" encoding="utf-8" standalone="no"?>
<!DOCTYPE svg PUBLIC "-//W3C//DTD SVG 1.1//EN"
  "http://www.w3.org/Graphics/SVG/1.1/DTD/svg11.dtd">
<svg xmlns:xlink="http://www.w3.org/1999/xlink" width="667.776562pt" height="425.778375pt" viewBox="0 0 667.776562 425.778375" xmlns="http://www.w3.org/2000/svg" version="1.1">
 <metadata>
  <rdf:RDF xmlns:dc="http://purl.org/dc/elements/1.1/" xmlns:cc="http://creativecommons.org/ns#" xmlns:rdf="http://www.w3.org/1999/02/22-rdf-syntax-ns#">
   <cc:Work>
    <dc:type rdf:resource="http://purl.org/dc/dcmitype/StillImage"/>
    <dc:date>2026-07-08T13:17:26.301178</dc:date>
    <dc:format>image/svg+xml</dc:format>
    <dc:creator>
     <cc:Agent>
      <dc:title>Matplotlib v3.9.4, https://matplotlib.org/</dc:title>
     </cc:Agent>
    </dc:creator>
   </cc:Work>
  </rdf:RDF>
 </metadata>
 <defs>
  <style type="text/css">*{stroke-linejoin: round; stroke-linecap: butt}</style>
 </defs>
 <g id="figure_1">
  <g id="patch_1">
   <path d="M 0 425.778375 
L 667.776562 425.778375 
L 667.776562 0 
L 0 0 
z
" style="fill: #ffffff"/>
  </g>
  <g id="axes_1">
   <g id="patch_2">
    <path d="M 130.476562 388.222125 
L 660.576563 388.222125 
L 660.576563 22.318125 
L 130.476562 22.318125 
z
" style="fill: #ffffff"/>
   </g>
   <g id="patch_3">
    <path d="M 130.476562 388.222125 
L 386.976562 388.222125 
L 386.976562 22.318125 
L 130.476562 22.318125 
z
" clip-path="url(#p87ac0685ec)" style="fill: #59a14f; opacity: 0.08; stroke: #59a14f; stroke-linejoin: miter"/>
   </g>
   <g id="patch_4">
    <path d="M 386.976562 388.222125 
L 660.576563 388.222125 
L 660.576563 22.318125 
L 386.976562 22.318125 
z
" clip-path="url(#p87ac0685ec)" style="fill: #b07aa1; opacity: 0.07; stroke: #b07aa1; stroke-linejoin: miter"/>
   </g>
   <g id="PathCollection_1">
    <path d="M 271.528373 378.017806 
C 273.233014 378.017806 274.868066 377.340545 276.07343 376.135182 
C 277.278793 374.929819 277.956054 373.294766 277.956054 371.590125 
C 277.956054 369.885484 277.278793 368.250431 276.07343 367.045068 
C 274.868066 365.839705 273.233014 365.162444 271.528373 365.162444 
C 269.823732 365.162444 268.188679 365.839705 266.983316 367.045068 
C 265.777953 368.250431 265.100692 369.885484 265.100692 371.590125 
C 265.100692 373.294766 265.777953 374.929819 266.983316 376.135182 
C 268.188679 377.340545 269.823732 378.017806 271.528373 378.017806 
z
" clip-path="url(#p87ac0685ec)" style="fill: #59a14f; stroke: #2f3437; stroke-width: 0.6"/>
    <path d="M 335.130607 358.083567 
C 337.42977 358.083567 339.635074 357.1701 341.260828 355.544346 
C 342.886582 353.918592 343.800049 351.713288 343.800049 349.414125 
C 343.800049 347.114962 342.886582 344.909658 341.260828 343.283904 
C 339.635074 341.65815 337.42977 340.744683 335.130607 340.744683 
C 332.831444 340.744683 330.62614 341.65815 329.000386 343.283904 
C 327.374632 344.909658 326.461165 347.114962 326.461165 349.414125 
C 326.461165 351.713288 327.374632 353.918592 329.000386 355.544346 
C 330.62614 357.1701 332.831444 358.083567 335.130607 358.083567 
z
" clip-path="url(#p87ac0685ec)" style="fill: #59a14f; stroke: #2f3437; stroke-width: 0.6"/>
    <path d="M 335.82117 336.083061 
C 338.166875 336.083061 340.416821 335.151103 342.075485 333.492439 
C 343.734148 331.833776 344.666106 329.583829 344.666106 327.238125 
C 344.666106 324.892421 343.734148 322.642474 342.075485 320.983811 
C 340.416821 319.325147 338.166875 318.393189 335.82117 318.393189 
C 333.475466 318.393189 331.22552 319.325147 329.566856 320.983811 
C 327.908193 322.642474 326.976234 324.892421 326.976234 327.238125 
C 326.976234 329.583829 327.908193 331.833776 329.566856 333.492439 
C 331.22552 335.151103 333.475466 336.083061 335.82117 336.083061 
z
" clip-path="url(#p87ac0685ec)" style="fill: #59a14f; stroke: #2f3437; stroke-width: 0.6"/>
    <path d="M 338.612379 311.220155 
C 340.245508 311.220155 341.811968 310.571307 342.966765 309.41651 
C 344.121561 308.261714 344.77041 306.695254 344.77041 305.062125 
C 344.77041 303.428996 344.121561 301.862536 342.966765 300.70774 
C 341.811968 299.552943 340.245508 298.904095 338.612379 298.904095 
C 336.979251 298.904095 335.412791 299.552943 334.257994 300.70774 
C 333.103198 301.862536 332.454349 303.428996 332.454349 305.062125 
C 332.454349 306.695254 333.103198 308.261714 334.257994 309.41651 
C 335.412791 310.571307 336.979251 311.220155 338.612379 311.220155 
z
" clip-path="url(#p87ac0685ec)" style="fill: #59a14f; stroke: #2f3437; stroke-width: 0.6"/>
    <path d="M 356.364455 288.922299 
C 357.965267 288.922299 359.50073 288.28629 360.632675 287.154345 
C 361.76462 286.0224 362.40063 284.486937 362.40063 282.886125 
C 362.40063 281.285313 361.76462 279.74985 360.632675 278.617905 
C 359.50073 277.48596 357.965267 276.849951 356.364455 276.849951 
C 354.763643 276.849951 353.22818 277.48596 352.096235 278.617905 
C 350.96429 279.74985 350.328281 281.285313 350.328281 282.886125 
C 350.328281 284.486937 350.96429 286.0224 352.096235 287.154345 
C 353.22818 288.28629 354.763643 288.922299 356.364455 288.922299 
z
" clip-path="url(#p87ac0685ec)" style="fill: #59a14f; stroke: #2f3437; stroke-width: 0.6"/>
    <path d="M 357.076891 267.327582 
C 358.831861 267.327582 360.515188 266.630325 361.75614 265.389374 
C 362.997091 264.148422 363.694348 262.465095 363.694348 260.710125 
C 363.694348 258.955155 362.997091 257.271828 361.75614 256.030876 
C 360.515188 254.789925 358.831861 254.092668 357.076891 254.092668 
C 355.321921 254.092668 353.638594 254.789925 352.397642 256.030876 
C 351.156691 257.271828 350.459434 258.955155 350.459434 260.710125 
C 350.459434 262.465095 351.156691 264.148422 352.397642 265.389374 
C 353.638594 266.630325 355.321921 267.327582 357.076891 267.327582 
z
" clip-path="url(#p87ac0685ec)" style="fill: #59a14f; stroke: #2f3437; stroke-width: 0.6"/>
    <path d="M 360.154399 244.642679 
C 361.774406 244.642679 363.328281 243.999044 364.473799 242.853525 
C 365.619317 241.708007 366.262953 240.154133 366.262953 238.534125 
C 366.262953 236.914117 365.619317 235.360243 364.473799 234.214725 
C 363.328281 233.069206 361.774406 232.425571 360.154399 232.425571 
C 358.534391 232.425571 356.980517 233.069206 355.834999 234.214725 
C 354.68948 235.360243 354.045844 236.914117 354.045844 238.534125 
C 354.045844 240.154133 354.68948 241.708007 355.834999 242.853525 
C 356.980517 243.999044 358.534391 244.642679 360.154399 244.642679 
z
" clip-path="url(#p87ac0685ec)" style="fill: #59a14f; stroke: #2f3437; stroke-width: 0.6"/>
    <path d="M 374.217551 225.907988 
C 376.750204 225.907988 379.179468 224.901754 380.970324 223.110898 
C 382.76118 221.320042 383.767414 218.890778 383.767414 216.358125 
C 383.767414 213.825472 382.76118 211.396208 380.970324 209.605352 
C 379.179468 207.814496 376.750204 206.808262 374.217551 206.808262 
C 371.684898 206.808262 369.255635 207.814496 367.464778 209.605352 
C 365.673922 211.396208 364.667688 213.825472 364.667688 216.358125 
C 364.667688 218.890778 365.673922 221.320042 367.464778 223.110898 
C 369.255635 224.901754 371.684898 225.907988 374.217551 225.907988 
z
" clip-path="url(#p87ac0685ec)" style="fill: #59a14f; stroke: #2f3437; stroke-width: 0.6"/>
    <path d="M 380.444868 200.844029 
C 382.211625 200.844029 383.906259 200.142089 385.155545 198.892803 
C 386.404832 197.643516 387.106772 195.948883 387.106772 194.182125 
C 387.106772 192.415367 386.404832 190.720734 385.155545 189.471447 
C 383.906259 188.222161 382.211625 187.520221 380.444868 187.520221 
C 378.67811 187.520221 376.983476 188.222161 375.73419 189.471447 
C 374.484903 190.720734 373.782963 192.415367 373.782963 194.182125 
C 373.782963 195.948883 374.484903 197.643516 375.73419 198.892803 
C 376.983476 200.142089 378.67811 200.844029 380.444868 200.844029 
z
" clip-path="url(#p87ac0685ec)" style="fill: #59a14f; stroke: #2f3437; stroke-width: 0.6"/>
    <path d="M 383.65299 181.291828 
C 386.115587 181.291828 388.477654 180.313428 390.218973 178.572109 
C 391.960293 176.83079 392.938693 174.468722 392.938693 172.006125 
C 392.938693 169.543528 391.960293 167.18146 390.218973 165.440141 
C 388.477654 163.698822 386.115587 162.720422 383.65299 162.720422 
C 381.190392 162.720422 378.828325 163.698822 377.087006 165.440141 
C 375.345687 167.18146 374.367286 169.543528 374.367286 172.006125 
C 374.367286 174.468722 375.345687 176.83079 377.087006 178.572109 
C 378.828325 180.313428 381.190392 181.291828 383.65299 181.291828 
z
" clip-path="url(#p87ac0685ec)" style="fill: #59a14f; stroke: #2f3437; stroke-width: 0.6"/>
    <path d="M 404.516693 158.066334 
C 406.700961 158.066334 408.796062 157.198515 410.340573 155.654004 
C 411.885084 154.109494 412.752903 152.014393 412.752903 149.830125 
C 412.752903 147.645857 411.885084 145.550756 410.340573 144.006246 
C 408.796062 142.461735 406.700961 141.593916 404.516693 141.593916 
C 402.332425 141.593916 400.237325 142.461735 398.692814 144.006246 
C 397.148303 145.550756 396.280484 147.645857 396.280484 149.830125 
C 396.280484 152.014393 397.148303 154.109494 398.692814 155.654004 
C 400.237325 157.198515 402.332425 158.066334 404.516693 158.066334 
z
" clip-path="url(#p87ac0685ec)" style="fill: #b07aa1; stroke: #2f3437; stroke-width: 0.6"/>
    <path d="M 438.471134 134.816222 
C 440.370545 134.816222 442.192416 134.061578 443.535502 132.718492 
C 444.878588 131.375406 445.633231 129.553535 445.633231 127.654125 
C 445.633231 125.754715 444.878588 123.932844 443.535502 122.589758 
C 442.192416 121.246672 440.370545 120.492028 438.471134 120.492028 
C 436.571724 120.492028 434.749853 121.246672 433.406767 122.589758 
C 432.063681 123.932844 431.309038 125.754715 431.309038 127.654125 
C 431.309038 129.553535 432.063681 131.375406 433.406767 132.718492 
C 434.749853 134.061578 436.571724 134.816222 438.471134 134.816222 
z
" clip-path="url(#p87ac0685ec)" style="fill: #b07aa1; stroke: #2f3437; stroke-width: 0.6"/>
    <path d="M 445.244514 111.576821 
C 446.861907 111.576821 448.413274 110.934224 449.556944 109.790554 
C 450.700613 108.646885 451.34321 107.095518 451.34321 105.478125 
C 451.34321 103.860732 450.700613 102.309365 449.556944 101.165696 
C 448.413274 100.022026 446.861907 99.379429 445.244514 99.379429 
C 443.627121 99.379429 442.075755 100.022026 440.932085 101.165696 
C 439.788416 102.309365 439.145819 103.860732 439.145819 105.478125 
C 439.145819 107.095518 439.788416 108.646885 440.932085 109.790554 
C 442.075755 110.934224 443.627121 111.576821 445.244514 111.576821 
z
" clip-path="url(#p87ac0685ec)" style="fill: #b07aa1; stroke: #2f3437; stroke-width: 0.6"/>
    <path d="M 461.698535 92.147222 
C 464.044282 92.147222 466.29427 91.215247 467.952963 89.556553 
C 469.611657 87.89786 470.543632 85.647872 470.543632 83.302125 
C 470.543632 80.956378 469.611657 78.70639 467.952963 77.047697 
C 466.29427 75.389003 464.044282 74.457028 461.698535 74.457028 
C 459.352788 74.457028 457.102801 75.389003 455.444107 77.047697 
C 453.785413 78.70639 452.853438 80.956378 452.853438 83.302125 
C 452.853438 85.647872 453.785413 87.89786 455.444107 89.556553 
C 457.102801 91.215247 459.352788 92.147222 461.698535 92.147222 
z
" clip-path="url(#p87ac0685ec)" style="fill: #b07aa1; stroke: #2f3437; stroke-width: 0.6"/>
    <path d="M 479.060389 69.803624 
C 481.361688 69.803624 483.569043 68.889308 485.196307 67.262044 
C 486.823572 65.634779 487.737888 63.427425 487.737888 61.126125 
C 487.737888 58.824825 486.823572 56.617471 485.196307 54.990206 
C 483.569043 53.362942 481.361688 52.448626 479.060389 52.448626 
C 476.759089 52.448626 474.551735 53.362942 472.92447 54.990206 
C 471.297205 56.617471 470.382889 58.824825 470.382889 61.126125 
C 470.382889 63.427425 471.297205 65.634779 472.92447 67.262044 
C 474.551735 68.889308 476.759089 69.803624 479.060389 69.803624 
z
" clip-path="url(#p87ac0685ec)" style="fill: #b07aa1; stroke: #2f3437; stroke-width: 0.6"/>
    <path d="M 483.776578 47.283907 
C 485.986723 47.283907 488.106644 46.405807 489.669452 44.842999 
C 491.23226 43.28019 492.11036 41.16027 492.11036 38.950125 
C 492.11036 36.73998 491.23226 34.62006 489.669452 33.057251 
C 488.106644 31.494443 485.986723 30.616343 483.776578 30.616343 
C 481.566434 30.616343 479.446513 31.494443 477.883705 33.057251 
C 476.320896 34.62006 475.442796 36.73998 475.442796 38.950125 
C 475.442796 41.16027 476.320896 43.28019 477.883705 44.842999 
C 479.446513 46.405807 481.566434 47.283907 483.776578 47.283907 
z
" clip-path="url(#p87ac0685ec)" style="fill: #b07aa1; stroke: #2f3437; stroke-width: 0.6"/>
   </g>
   <g id="matplotlib.axis_1">
    <g id="xtick_1">
     <g id="line2d_1">
      <path d="M 130.476562 388.222125 
L 130.476562 22.318125 
" clip-path="url(#p87ac0685ec)" style="fill: none; stroke: #b0b0b0; stroke-opacity: 0.25; stroke-width: 0.8; stroke-linecap: square"/>
     </g>
     <g id="line2d_2">
      <defs>
       <path id="m0d201ca831" d="M 0 0 
L 0 3.5 
" style="stroke: #000000; stroke-width: 0.8"/>
      </defs>
      <g>
       <use xlink:href="#m0d201ca831" x="130.476562" y="388.222125" style="stroke: #000000; stroke-width: 0.8"/>
      </g>
     </g>
     <g id="text_1">
      <!-- 0 -->
      <g transform="translate(127.295312 402.820562) scale(0.1 -0.1)">
       <defs>
        <path id="DejaVuSans-30" d="M 2034 4250 
Q 1547 4250 1301 3770 
Q 1056 3291 1056 2328 
Q 1056 1369 1301 889 
Q 1547 409 2034 409 
Q 2525 409 2770 889 
Q 3016 1369 3016 2328 
Q 3016 3291 2770 3770 
Q 2525 4250 2034 4250 
z
M 2034 4750 
Q 2819 4750 3233 4129 
Q 3647 3509 3647 2328 
Q 3647 1150 3233 529 
Q 2819 -91 2034 -91 
Q 1250 -91 836 529 
Q 422 1150 422 2328 
Q 422 3509 836 4129 
Q 1250 4750 2034 4750 
z
" transform="scale(0.015625)"/>
       </defs>
       <use xlink:href="#DejaVuSans-30"/>
      </g>
     </g>
    </g>
    <g id="xtick_2">
     <g id="line2d_3">
      <path d="M 215.976562 388.222125 
L 215.976562 22.318125 
" clip-path="url(#p87ac0685ec)" style="fill: none; stroke: #b0b0b0; stroke-opacity: 0.25; stroke-width: 0.8; stroke-linecap: square"/>
     </g>
     <g id="line2d_4">
      <g>
       <use xlink:href="#m0d201ca831" x="215.976562" y="388.222125" style="stroke: #000000; stroke-width: 0.8"/>
      </g>
     </g>
     <g id="text_2">
      <!-- 5 -->
      <g transform="translate(212.795312 402.820562) scale(0.1 -0.1)">
       <defs>
        <path id="DejaVuSans-35" d="M 691 4666 
L 3169 4666 
L 3169 4134 
L 1269 4134 
L 1269 2991 
Q 1406 3038 1543 3061 
Q 1681 3084 1819 3084 
Q 2600 3084 3056 2656 
Q 3513 2228 3513 1497 
Q 3513 744 3044 326 
Q 2575 -91 1722 -91 
Q 1428 -91 1123 -41 
Q 819 9 494 109 
L 494 744 
Q 775 591 1075 516 
Q 1375 441 1709 441 
Q 2250 441 2565 725 
Q 2881 1009 2881 1497 
Q 2881 1984 2565 2268 
Q 2250 2553 1709 2553 
Q 1456 2553 1204 2497 
Q 953 2441 691 2322 
L 691 4666 
z
" transform="scale(0.015625)"/>
       </defs>
       <use xlink:href="#DejaVuSans-35"/>
      </g>
     </g>
    </g>
    <g id="xtick_3">
     <g id="line2d_5">
      <path d="M 301.476562 388.222125 
L 301.476562 22.318125 
" clip-path="url(#p87ac0685ec)" style="fill: none; stroke: #b0b0b0; stroke-opacity: 0.25; stroke-width: 0.8; stroke-linecap: square"/>
     </g>
     <g id="line2d_6">
      <g>
       <use xlink:href="#m0d201ca831" x="301.476562" y="388.222125" style="stroke: #000000; stroke-width: 0.8"/>
      </g>
     </g>
     <g id="text_3">
      <!-- 10 -->
      <g transform="translate(295.114062 402.820562) scale(0.1 -0.1)">
       <defs>
        <path id="DejaVuSans-31" d="M 794 531 
L 1825 531 
L 1825 4091 
L 703 3866 
L 703 4441 
L 1819 4666 
L 2450 4666 
L 2450 531 
L 3481 531 
L 3481 0 
L 794 0 
L 794 531 
z
" transform="scale(0.015625)"/>
       </defs>
       <use xlink:href="#DejaVuSans-31"/>
       <use xlink:href="#DejaVuSans-30" x="63.623047"/>
      </g>
     </g>
    </g>
    <g id="xtick_4">
     <g id="line2d_7">
      <path d="M 386.976562 388.222125 
L 386.976562 22.318125 
" clip-path="url(#p87ac0685ec)" style="fill: none; stroke: #b0b0b0; stroke-opacity: 0.25; stroke-width: 0.8; stroke-linecap: square"/>
     </g>
     <g id="line2d_8">
      <g>
       <use xlink:href="#m0d201ca831" x="386.976562" y="388.222125" style="stroke: #000000; stroke-width: 0.8"/>
      </g>
     </g>
     <g id="text_4">
      <!-- 15 -->
      <g transform="translate(380.614062 402.820562) scale(0.1 -0.1)">
       <use xlink:href="#DejaVuSans-31"/>
       <use xlink:href="#DejaVuSans-35" x="63.623047"/>
      </g>
     </g>
    </g>
    <g id="xtick_5">
     <g id="line2d_9">
      <path d="M 472.476562 388.222125 
L 472.476562 22.318125 
" clip-path="url(#p87ac0685ec)" style="fill: none; stroke: #b0b0b0; stroke-opacity: 0.25; stroke-width: 0.8; stroke-linecap: square"/>
     </g>
     <g id="line2d_10">
      <g>
       <use xlink:href="#m0d201ca831" x="472.476562" y="388.222125" style="stroke: #000000; stroke-width: 0.8"/>
      </g>
     </g>
     <g id="text_5">
      <!-- 20 -->
      <g transform="translate(466.114062 402.820562) scale(0.1 -0.1)">
       <defs>
        <path id="DejaVuSans-32" d="M 1228 531 
L 3431 531 
L 3431 0 
L 469 0 
L 469 531 
Q 828 903 1448 1529 
Q 2069 2156 2228 2338 
Q 2531 2678 2651 2914 
Q 2772 3150 2772 3378 
Q 2772 3750 2511 3984 
Q 2250 4219 1831 4219 
Q 1534 4219 1204 4116 
Q 875 4013 500 3803 
L 500 4441 
Q 881 4594 1212 4672 
Q 1544 4750 1819 4750 
Q 2544 4750 2975 4387 
Q 3406 4025 3406 3419 
Q 3406 3131 3298 2873 
Q 3191 2616 2906 2266 
Q 2828 2175 2409 1742 
Q 1991 1309 1228 531 
z
" transform="scale(0.015625)"/>
       </defs>
       <use xlink:href="#DejaVuSans-32"/>
       <use xlink:href="#DejaVuSans-30" x="63.623047"/>
      </g>
     </g>
    </g>
    <g id="xtick_6">
     <g id="line2d_11">
      <path d="M 557.976562 388.222125 
L 557.976562 22.318125 
" clip-path="url(#p87ac0685ec)" style="fill: none; stroke: #b0b0b0; stroke-opacity: 0.25; stroke-width: 0.8; stroke-linecap: square"/>
     </g>
     <g id="line2d_12">
      <g>
       <use xlink:href="#m0d201ca831" x="557.976562" y="388.222125" style="stroke: #000000; stroke-width: 0.8"/>
      </g>
     </g>
     <g id="text_6">
      <!-- 25 -->
      <g transform="translate(551.614063 402.820562) scale(0.1 -0.1)">
       <use xlink:href="#DejaVuSans-32"/>
       <use xlink:href="#DejaVuSans-35" x="63.623047"/>
      </g>
     </g>
    </g>
    <g id="xtick_7">
     <g id="line2d_13">
      <path d="M 643.476562 388.222125 
L 643.476562 22.318125 
" clip-path="url(#p87ac0685ec)" style="fill: none; stroke: #b0b0b0; stroke-opacity: 0.25; stroke-width: 0.8; stroke-linecap: square"/>
     </g>
     <g id="line2d_14">
      <g>
       <use xlink:href="#m0d201ca831" x="643.476562" y="388.222125" style="stroke: #000000; stroke-width: 0.8"/>
      </g>
     </g>
     <g id="text_7">
      <!-- 30 -->
      <g transform="translate(637.114063 402.820562) scale(0.1 -0.1)">
       <defs>
        <path id="DejaVuSans-33" d="M 2597 2516 
Q 3050 2419 3304 2112 
Q 3559 1806 3559 1356 
Q 3559 666 3084 287 
Q 2609 -91 1734 -91 
Q 1441 -91 1130 -33 
Q 819 25 488 141 
L 488 750 
Q 750 597 1062 519 
Q 1375 441 1716 441 
Q 2309 441 2620 675 
Q 2931 909 2931 1356 
Q 2931 1769 2642 2001 
Q 2353 2234 1838 2234 
L 1294 2234 
L 1294 2753 
L 1863 2753 
Q 2328 2753 2575 2939 
Q 2822 3125 2822 3475 
Q 2822 3834 2567 4026 
Q 2313 4219 1838 4219 
Q 1578 4219 1281 4162 
Q 984 4106 628 3988 
L 628 4550 
Q 988 4650 1302 4700 
Q 1616 4750 1894 4750 
Q 2613 4750 3031 4423 
Q 3450 4097 3450 3541 
Q 3450 3153 3228 2886 
Q 3006 2619 2597 2516 
z
" transform="scale(0.015625)"/>
       </defs>
       <use xlink:href="#DejaVuSans-33"/>
       <use xlink:href="#DejaVuSans-30" x="63.623047"/>
      </g>
     </g>
    </g>
    <g id="text_8">
     <!-- Score-weighted layer centroid -->
     <g transform="translate(320.36875 416.498687) scale(0.1 -0.1)">
      <defs>
       <path id="DejaVuSans-53" d="M 3425 4513 
L 3425 3897 
Q 3066 4069 2747 4153 
Q 2428 4238 2131 4238 
Q 1616 4238 1336 4038 
Q 1056 3838 1056 3469 
Q 1056 3159 1242 3001 
Q 1428 2844 1947 2747 
L 2328 2669 
Q 3034 2534 3370 2195 
Q 3706 1856 3706 1288 
Q 3706 609 3251 259 
Q 2797 -91 1919 -91 
Q 1588 -91 1214 -16 
Q 841 59 441 206 
L 441 856 
Q 825 641 1194 531 
Q 1563 422 1919 422 
Q 2459 422 2753 634 
Q 3047 847 3047 1241 
Q 3047 1584 2836 1778 
Q 2625 1972 2144 2069 
L 1759 2144 
Q 1053 2284 737 2584 
Q 422 2884 422 3419 
Q 422 4038 858 4394 
Q 1294 4750 2059 4750 
Q 2388 4750 2728 4690 
Q 3069 4631 3425 4513 
z
" transform="scale(0.015625)"/>
       <path id="DejaVuSans-63" d="M 3122 3366 
L 3122 2828 
Q 2878 2963 2633 3030 
Q 2388 3097 2138 3097 
Q 1578 3097 1268 2742 
Q 959 2388 959 1747 
Q 959 1106 1268 751 
Q 1578 397 2138 397 
Q 2388 397 2633 464 
Q 2878 531 3122 666 
L 3122 134 
Q 2881 22 2623 -34 
Q 2366 -91 2075 -91 
Q 1284 -91 818 406 
Q 353 903 353 1747 
Q 353 2603 823 3093 
Q 1294 3584 2113 3584 
Q 2378 3584 2631 3529 
Q 2884 3475 3122 3366 
z
" transform="scale(0.015625)"/>
       <path id="DejaVuSans-6f" d="M 1959 3097 
Q 1497 3097 1228 2736 
Q 959 2375 959 1747 
Q 959 1119 1226 758 
Q 1494 397 1959 397 
Q 2419 397 2687 759 
Q 2956 1122 2956 1747 
Q 2956 2369 2687 2733 
Q 2419 3097 1959 3097 
z
M 1959 3584 
Q 2709 3584 3137 3096 
Q 3566 2609 3566 1747 
Q 3566 888 3137 398 
Q 2709 -91 1959 -91 
Q 1206 -91 779 398 
Q 353 888 353 1747 
Q 353 2609 779 3096 
Q 1206 3584 1959 3584 
z
" transform="scale(0.015625)"/>
       <path id="DejaVuSans-72" d="M 2631 2963 
Q 2534 3019 2420 3045 
Q 2306 3072 2169 3072 
Q 1681 3072 1420 2755 
Q 1159 2438 1159 1844 
L 1159 0 
L 581 0 
L 581 3500 
L 1159 3500 
L 1159 2956 
Q 1341 3275 1631 3429 
Q 1922 3584 2338 3584 
Q 2397 3584 2469 3576 
Q 2541 3569 2628 3553 
L 2631 2963 
z
" transform="scale(0.015625)"/>
       <path id="DejaVuSans-65" d="M 3597 1894 
L 3597 1613 
L 953 1613 
Q 991 1019 1311 708 
Q 1631 397 2203 397 
Q 2534 397 2845 478 
Q 3156 559 3463 722 
L 3463 178 
Q 3153 47 2828 -22 
Q 2503 -91 2169 -91 
Q 1331 -91 842 396 
Q 353 884 353 1716 
Q 353 2575 817 3079 
Q 1281 3584 2069 3584 
Q 2775 3584 3186 3129 
Q 3597 2675 3597 1894 
z
M 3022 2063 
Q 3016 2534 2758 2815 
Q 2500 3097 2075 3097 
Q 1594 3097 1305 2825 
Q 1016 2553 972 2059 
L 3022 2063 
z
" transform="scale(0.015625)"/>
       <path id="DejaVuSans-2d" d="M 313 2009 
L 1997 2009 
L 1997 1497 
L 313 1497 
L 313 2009 
z
" transform="scale(0.015625)"/>
       <path id="DejaVuSans-77" d="M 269 3500 
L 844 3500 
L 1563 769 
L 2278 3500 
L 2956 3500 
L 3675 769 
L 4391 3500 
L 4966 3500 
L 4050 0 
L 3372 0 
L 2619 2869 
L 1863 0 
L 1184 0 
L 269 3500 
z
" transform="scale(0.015625)"/>
       <path id="DejaVuSans-69" d="M 603 3500 
L 1178 3500 
L 1178 0 
L 603 0 
L 603 3500 
z
M 603 4863 
L 1178 4863 
L 1178 4134 
L 603 4134 
L 603 4863 
z
" transform="scale(0.015625)"/>
       <path id="DejaVuSans-67" d="M 2906 1791 
Q 2906 2416 2648 2759 
Q 2391 3103 1925 3103 
Q 1463 3103 1205 2759 
Q 947 2416 947 1791 
Q 947 1169 1205 825 
Q 1463 481 1925 481 
Q 2391 481 2648 825 
Q 2906 1169 2906 1791 
z
M 3481 434 
Q 3481 -459 3084 -895 
Q 2688 -1331 1869 -1331 
Q 1566 -1331 1297 -1286 
Q 1028 -1241 775 -1147 
L 775 -588 
Q 1028 -725 1275 -790 
Q 1522 -856 1778 -856 
Q 2344 -856 2625 -561 
Q 2906 -266 2906 331 
L 2906 616 
Q 2728 306 2450 153 
Q 2172 0 1784 0 
Q 1141 0 747 490 
Q 353 981 353 1791 
Q 353 2603 747 3093 
Q 1141 3584 1784 3584 
Q 2172 3584 2450 3431 
Q 2728 3278 2906 2969 
L 2906 3500 
L 3481 3500 
L 3481 434 
z
" transform="scale(0.015625)"/>
       <path id="DejaVuSans-68" d="M 3513 2113 
L 3513 0 
L 2938 0 
L 2938 2094 
Q 2938 2591 2744 2837 
Q 2550 3084 2163 3084 
Q 1697 3084 1428 2787 
Q 1159 2491 1159 1978 
L 1159 0 
L 581 0 
L 581 4863 
L 1159 4863 
L 1159 2956 
Q 1366 3272 1645 3428 
Q 1925 3584 2291 3584 
Q 2894 3584 3203 3211 
Q 3513 2838 3513 2113 
z
" transform="scale(0.015625)"/>
       <path id="DejaVuSans-74" d="M 1172 4494 
L 1172 3500 
L 2356 3500 
L 2356 3053 
L 1172 3053 
L 1172 1153 
Q 1172 725 1289 603 
Q 1406 481 1766 481 
L 2356 481 
L 2356 0 
L 1766 0 
Q 1100 0 847 248 
Q 594 497 594 1153 
L 594 3053 
L 172 3053 
L 172 3500 
L 594 3500 
L 594 4494 
L 1172 4494 
z
" transform="scale(0.015625)"/>
       <path id="DejaVuSans-64" d="M 2906 2969 
L 2906 4863 
L 3481 4863 
L 3481 0 
L 2906 0 
L 2906 525 
Q 2725 213 2448 61 
Q 2172 -91 1784 -91 
Q 1150 -91 751 415 
Q 353 922 353 1747 
Q 353 2572 751 3078 
Q 1150 3584 1784 3584 
Q 2172 3584 2448 3432 
Q 2725 3281 2906 2969 
z
M 947 1747 
Q 947 1113 1208 752 
Q 1469 391 1925 391 
Q 2381 391 2643 752 
Q 2906 1113 2906 1747 
Q 2906 2381 2643 2742 
Q 2381 3103 1925 3103 
Q 1469 3103 1208 2742 
Q 947 2381 947 1747 
z
" transform="scale(0.015625)"/>
       <path id="DejaVuSans-20" transform="scale(0.015625)"/>
       <path id="DejaVuSans-6c" d="M 603 4863 
L 1178 4863 
L 1178 0 
L 603 0 
L 603 4863 
z
" transform="scale(0.015625)"/>
       <path id="DejaVuSans-61" d="M 2194 1759 
Q 1497 1759 1228 1600 
Q 959 1441 959 1056 
Q 959 750 1161 570 
Q 1363 391 1709 391 
Q 2188 391 2477 730 
Q 2766 1069 2766 1631 
L 2766 1759 
L 2194 1759 
z
M 3341 1997 
L 3341 0 
L 2766 0 
L 2766 531 
Q 2569 213 2275 61 
Q 1981 -91 1556 -91 
Q 1019 -91 701 211 
Q 384 513 384 1019 
Q 384 1609 779 1909 
Q 1175 2209 1959 2209 
L 2766 2209 
L 2766 2266 
Q 2766 2663 2505 2880 
Q 2244 3097 1772 3097 
Q 1472 3097 1187 3025 
Q 903 2953 641 2809 
L 641 3341 
Q 956 3463 1253 3523 
Q 1550 3584 1831 3584 
Q 2591 3584 2966 3190 
Q 3341 2797 3341 1997 
z
" transform="scale(0.015625)"/>
       <path id="DejaVuSans-79" d="M 2059 -325 
Q 1816 -950 1584 -1140 
Q 1353 -1331 966 -1331 
L 506 -1331 
L 506 -850 
L 844 -850 
Q 1081 -850 1212 -737 
Q 1344 -625 1503 -206 
L 1606 56 
L 191 3500 
L 800 3500 
L 1894 763 
L 2988 3500 
L 3597 3500 
L 2059 -325 
z
" transform="scale(0.015625)"/>
       <path id="DejaVuSans-6e" d="M 3513 2113 
L 3513 0 
L 2938 0 
L 2938 2094 
Q 2938 2591 2744 2837 
Q 2550 3084 2163 3084 
Q 1697 3084 1428 2787 
Q 1159 2491 1159 1978 
L 1159 0 
L 581 0 
L 581 3500 
L 1159 3500 
L 1159 2956 
Q 1366 3272 1645 3428 
Q 1925 3584 2291 3584 
Q 2894 3584 3203 3211 
Q 3513 2838 3513 2113 
z
" transform="scale(0.015625)"/>
      </defs>
      <use xlink:href="#DejaVuSans-53"/>
      <use xlink:href="#DejaVuSans-63" x="63.476562"/>
      <use xlink:href="#DejaVuSans-6f" x="118.457031"/>
      <use xlink:href="#DejaVuSans-72" x="179.638672"/>
      <use xlink:href="#DejaVuSans-65" x="218.501953"/>
      <use xlink:href="#DejaVuSans-2d" x="280.025391"/>
      <use xlink:href="#DejaVuSans-77" x="316.109375"/>
      <use xlink:href="#DejaVuSans-65" x="397.896484"/>
      <use xlink:href="#DejaVuSans-69" x="459.419922"/>
      <use xlink:href="#DejaVuSans-67" x="487.203125"/>
      <use xlink:href="#DejaVuSans-68" x="550.679688"/>
      <use xlink:href="#DejaVuSans-74" x="614.058594"/>
      <use xlink:href="#DejaVuSans-65" x="653.267578"/>
      <use xlink:href="#DejaVuSans-64" x="714.791016"/>
      <use xlink:href="#DejaVuSans-20" x="778.267578"/>
      <use xlink:href="#DejaVuSans-6c" x="810.054688"/>
      <use xlink:href="#DejaVuSans-61" x="837.837891"/>
      <use xlink:href="#DejaVuSans-79" x="899.117188"/>
      <use xlink:href="#DejaVuSans-65" x="958.296875"/>
      <use xlink:href="#DejaVuSans-72" x="1019.820312"/>
      <use xlink:href="#DejaVuSans-20" x="1060.933594"/>
      <use xlink:href="#DejaVuSans-63" x="1092.720703"/>
      <use xlink:href="#DejaVuSans-65" x="1147.701172"/>
      <use xlink:href="#DejaVuSans-6e" x="1209.224609"/>
      <use xlink:href="#DejaVuSans-74" x="1272.603516"/>
      <use xlink:href="#DejaVuSans-72" x="1311.8125"/>
      <use xlink:href="#DejaVuSans-6f" x="1350.675781"/>
      <use xlink:href="#DejaVuSans-69" x="1411.857422"/>
      <use xlink:href="#DejaVuSans-64" x="1439.640625"/>
     </g>
    </g>
   </g>
   <g id="matplotlib.axis_2">
    <g id="ytick_1">
     <g id="line2d_15">
      <defs>
       <path id="me20e1ed1ce" d="M 0 0 
L -3.5 0 
" style="stroke: #000000; stroke-width: 0.8"/>
      </defs>
      <g>
       <use xlink:href="#me20e1ed1ce" x="130.476562" y="371.590125" style="stroke: #000000; stroke-width: 0.8"/>
      </g>
     </g>
     <g id="text_9">
      <!-- align_row -->
      <g transform="translate(75.923438 375.389344) scale(0.1 -0.1)">
       <defs>
        <path id="DejaVuSans-5f" d="M 3263 -1063 
L 3263 -1509 
L -63 -1509 
L -63 -1063 
L 3263 -1063 
z
" transform="scale(0.015625)"/>
       </defs>
       <use xlink:href="#DejaVuSans-61"/>
       <use xlink:href="#DejaVuSans-6c" x="61.279297"/>
       <use xlink:href="#DejaVuSans-69" x="89.0625"/>
       <use xlink:href="#DejaVuSans-67" x="116.845703"/>
       <use xlink:href="#DejaVuSans-6e" x="180.322266"/>
       <use xlink:href="#DejaVuSans-5f" x="243.701172"/>
       <use xlink:href="#DejaVuSans-72" x="293.701172"/>
       <use xlink:href="#DejaVuSans-6f" x="332.564453"/>
       <use xlink:href="#DejaVuSans-77" x="393.746094"/>
      </g>
     </g>
    </g>
    <g id="ytick_2">
     <g id="line2d_16">
      <g>
       <use xlink:href="#me20e1ed1ce" x="130.476562" y="349.414125" style="stroke: #000000; stroke-width: 0.8"/>
      </g>
     </g>
     <g id="text_10">
      <!-- tok_rowidx_to_hdr -->
      <g transform="translate(32.582812 353.213344) scale(0.1 -0.1)">
       <defs>
        <path id="DejaVuSans-6b" d="M 581 4863 
L 1159 4863 
L 1159 1991 
L 2875 3500 
L 3609 3500 
L 1753 1863 
L 3688 0 
L 2938 0 
L 1159 1709 
L 1159 0 
L 581 0 
L 581 4863 
z
" transform="scale(0.015625)"/>
        <path id="DejaVuSans-78" d="M 3513 3500 
L 2247 1797 
L 3578 0 
L 2900 0 
L 1881 1375 
L 863 0 
L 184 0 
L 1544 1831 
L 300 3500 
L 978 3500 
L 1906 2253 
L 2834 3500 
L 3513 3500 
z
" transform="scale(0.015625)"/>
       </defs>
       <use xlink:href="#DejaVuSans-74"/>
       <use xlink:href="#DejaVuSans-6f" x="39.208984"/>
       <use xlink:href="#DejaVuSans-6b" x="100.390625"/>
       <use xlink:href="#DejaVuSans-5f" x="158.300781"/>
       <use xlink:href="#DejaVuSans-72" x="208.300781"/>
       <use xlink:href="#DejaVuSans-6f" x="247.164062"/>
       <use xlink:href="#DejaVuSans-77" x="308.345703"/>
       <use xlink:href="#DejaVuSans-69" x="390.132812"/>
       <use xlink:href="#DejaVuSans-64" x="417.916016"/>
       <use xlink:href="#DejaVuSans-78" x="481.392578"/>
       <use xlink:href="#DejaVuSans-5f" x="540.572266"/>
       <use xlink:href="#DejaVuSans-74" x="590.572266"/>
       <use xlink:href="#DejaVuSans-6f" x="629.78125"/>
       <use xlink:href="#DejaVuSans-5f" x="690.962891"/>
       <use xlink:href="#DejaVuSans-68" x="740.962891"/>
       <use xlink:href="#DejaVuSans-64" x="804.341797"/>
       <use xlink:href="#DejaVuSans-72" x="867.818359"/>
      </g>
     </g>
    </g>
    <g id="ytick_3">
     <g id="line2d_17">
      <g>
       <use xlink:href="#me20e1ed1ce" x="130.476562" y="327.238125" style="stroke: #000000; stroke-width: 0.8"/>
      </g>
     </g>
     <g id="text_11">
      <!-- tok_rowidx_axis -->
      <g transform="translate(44.384375 331.037344) scale(0.1 -0.1)">
       <defs>
        <path id="DejaVuSans-73" d="M 2834 3397 
L 2834 2853 
Q 2591 2978 2328 3040 
Q 2066 3103 1784 3103 
Q 1356 3103 1142 2972 
Q 928 2841 928 2578 
Q 928 2378 1081 2264 
Q 1234 2150 1697 2047 
L 1894 2003 
Q 2506 1872 2764 1633 
Q 3022 1394 3022 966 
Q 3022 478 2636 193 
Q 2250 -91 1575 -91 
Q 1294 -91 989 -36 
Q 684 19 347 128 
L 347 722 
Q 666 556 975 473 
Q 1284 391 1588 391 
Q 1994 391 2212 530 
Q 2431 669 2431 922 
Q 2431 1156 2273 1281 
Q 2116 1406 1581 1522 
L 1381 1569 
Q 847 1681 609 1914 
Q 372 2147 372 2553 
Q 372 3047 722 3315 
Q 1072 3584 1716 3584 
Q 2034 3584 2315 3537 
Q 2597 3491 2834 3397 
z
" transform="scale(0.015625)"/>
       </defs>
       <use xlink:href="#DejaVuSans-74"/>
       <use xlink:href="#DejaVuSans-6f" x="39.208984"/>
       <use xlink:href="#DejaVuSans-6b" x="100.390625"/>
       <use xlink:href="#DejaVuSans-5f" x="158.300781"/>
       <use xlink:href="#DejaVuSans-72" x="208.300781"/>
       <use xlink:href="#DejaVuSans-6f" x="247.164062"/>
       <use xlink:href="#DejaVuSans-77" x="308.345703"/>
       <use xlink:href="#DejaVuSans-69" x="390.132812"/>
       <use xlink:href="#DejaVuSans-64" x="417.916016"/>
       <use xlink:href="#DejaVuSans-78" x="481.392578"/>
       <use xlink:href="#DejaVuSans-5f" x="540.572266"/>
       <use xlink:href="#DejaVuSans-61" x="590.572266"/>
       <use xlink:href="#DejaVuSans-78" x="651.851562"/>
       <use xlink:href="#DejaVuSans-69" x="711.03125"/>
       <use xlink:href="#DejaVuSans-73" x="738.814453"/>
      </g>
     </g>
    </g>
    <g id="ytick_4">
     <g id="line2d_18">
      <g>
       <use xlink:href="#me20e1ed1ce" x="130.476562" y="305.062125" style="stroke: #000000; stroke-width: 0.8"/>
      </g>
     </g>
     <g id="text_12">
      <!-- tok_colkw_axis -->
      <g transform="translate(49.248437 308.861344) scale(0.1 -0.1)">
       <use xlink:href="#DejaVuSans-74"/>
       <use xlink:href="#DejaVuSans-6f" x="39.208984"/>
       <use xlink:href="#DejaVuSans-6b" x="100.390625"/>
       <use xlink:href="#DejaVuSans-5f" x="158.300781"/>
       <use xlink:href="#DejaVuSans-63" x="208.300781"/>
       <use xlink:href="#DejaVuSans-6f" x="263.28125"/>
       <use xlink:href="#DejaVuSans-6c" x="324.462891"/>
       <use xlink:href="#DejaVuSans-6b" x="352.246094"/>
       <use xlink:href="#DejaVuSans-77" x="410.15625"/>
       <use xlink:href="#DejaVuSans-5f" x="491.943359"/>
       <use xlink:href="#DejaVuSans-61" x="541.943359"/>
       <use xlink:href="#DejaVuSans-78" x="603.222656"/>
       <use xlink:href="#DejaVuSans-69" x="662.402344"/>
       <use xlink:href="#DejaVuSans-73" x="690.185547"/>
      </g>
     </g>
    </g>
    <g id="ytick_5">
     <g id="line2d_19">
      <g>
       <use xlink:href="#me20e1ed1ce" x="130.476562" y="282.886125" style="stroke: #000000; stroke-width: 0.8"/>
      </g>
     </g>
     <g id="text_13">
      <!-- tok_rowidx_correct_cell -->
      <g transform="translate(7.2 286.685344) scale(0.1 -0.1)">
       <use xlink:href="#DejaVuSans-74"/>
       <use xlink:href="#DejaVuSans-6f" x="39.208984"/>
       <use xlink:href="#DejaVuSans-6b" x="100.390625"/>
       <use xlink:href="#DejaVuSans-5f" x="158.300781"/>
       <use xlink:href="#DejaVuSans-72" x="208.300781"/>
       <use xlink:href="#DejaVuSans-6f" x="247.164062"/>
       <use xlink:href="#DejaVuSans-77" x="308.345703"/>
       <use xlink:href="#DejaVuSans-69" x="390.132812"/>
       <use xlink:href="#DejaVuSans-64" x="417.916016"/>
       <use xlink:href="#DejaVuSans-78" x="481.392578"/>
       <use xlink:href="#DejaVuSans-5f" x="540.572266"/>
       <use xlink:href="#DejaVuSans-63" x="590.572266"/>
       <use xlink:href="#DejaVuSans-6f" x="645.552734"/>
       <use xlink:href="#DejaVuSans-72" x="706.734375"/>
       <use xlink:href="#DejaVuSans-72" x="746.097656"/>
       <use xlink:href="#DejaVuSans-65" x="784.960938"/>
       <use xlink:href="#DejaVuSans-63" x="846.484375"/>
       <use xlink:href="#DejaVuSans-74" x="901.464844"/>
       <use xlink:href="#DejaVuSans-5f" x="940.673828"/>
       <use xlink:href="#DejaVuSans-63" x="990.673828"/>
       <use xlink:href="#DejaVuSans-65" x="1045.654297"/>
       <use xlink:href="#DejaVuSans-6c" x="1107.177734"/>
       <use xlink:href="#DejaVuSans-6c" x="1134.960938"/>
      </g>
     </g>
    </g>
    <g id="ytick_6">
     <g id="line2d_20">
      <g>
       <use xlink:href="#me20e1ed1ce" x="130.476562" y="260.710125" style="stroke: #000000; stroke-width: 0.8"/>
      </g>
     </g>
     <g id="text_14">
      <!-- align_combined -->
      <g transform="translate(44.782812 264.509344) scale(0.1 -0.1)">
       <defs>
        <path id="DejaVuSans-6d" d="M 3328 2828 
Q 3544 3216 3844 3400 
Q 4144 3584 4550 3584 
Q 5097 3584 5394 3201 
Q 5691 2819 5691 2113 
L 5691 0 
L 5113 0 
L 5113 2094 
Q 5113 2597 4934 2840 
Q 4756 3084 4391 3084 
Q 3944 3084 3684 2787 
Q 3425 2491 3425 1978 
L 3425 0 
L 2847 0 
L 2847 2094 
Q 2847 2600 2669 2842 
Q 2491 3084 2119 3084 
Q 1678 3084 1418 2786 
Q 1159 2488 1159 1978 
L 1159 0 
L 581 0 
L 581 3500 
L 1159 3500 
L 1159 2956 
Q 1356 3278 1631 3431 
Q 1906 3584 2284 3584 
Q 2666 3584 2933 3390 
Q 3200 3197 3328 2828 
z
" transform="scale(0.015625)"/>
        <path id="DejaVuSans-62" d="M 3116 1747 
Q 3116 2381 2855 2742 
Q 2594 3103 2138 3103 
Q 1681 3103 1420 2742 
Q 1159 2381 1159 1747 
Q 1159 1113 1420 752 
Q 1681 391 2138 391 
Q 2594 391 2855 752 
Q 3116 1113 3116 1747 
z
M 1159 2969 
Q 1341 3281 1617 3432 
Q 1894 3584 2278 3584 
Q 2916 3584 3314 3078 
Q 3713 2572 3713 1747 
Q 3713 922 3314 415 
Q 2916 -91 2278 -91 
Q 1894 -91 1617 61 
Q 1341 213 1159 525 
L 1159 0 
L 581 0 
L 581 4863 
L 1159 4863 
L 1159 2969 
z
" transform="scale(0.015625)"/>
       </defs>
       <use xlink:href="#DejaVuSans-61"/>
       <use xlink:href="#DejaVuSans-6c" x="61.279297"/>
       <use xlink:href="#DejaVuSans-69" x="89.0625"/>
       <use xlink:href="#DejaVuSans-67" x="116.845703"/>
       <use xlink:href="#DejaVuSans-6e" x="180.322266"/>
       <use xlink:href="#DejaVuSans-5f" x="243.701172"/>
       <use xlink:href="#DejaVuSans-63" x="293.701172"/>
       <use xlink:href="#DejaVuSans-6f" x="348.681641"/>
       <use xlink:href="#DejaVuSans-6d" x="409.863281"/>
       <use xlink:href="#DejaVuSans-62" x="507.275391"/>
       <use xlink:href="#DejaVuSans-69" x="570.751953"/>
       <use xlink:href="#DejaVuSans-6e" x="598.535156"/>
       <use xlink:href="#DejaVuSans-65" x="661.914062"/>
       <use xlink:href="#DejaVuSans-64" x="723.4375"/>
      </g>
     </g>
    </g>
    <g id="ytick_7">
     <g id="line2d_21">
      <g>
       <use xlink:href="#me20e1ed1ce" x="130.476562" y="238.534125" style="stroke: #000000; stroke-width: 0.8"/>
      </g>
     </g>
     <g id="text_15">
      <!-- tok_colkw_to_hdr -->
      <g transform="translate(37.446875 242.333344) scale(0.1 -0.1)">
       <use xlink:href="#DejaVuSans-74"/>
       <use xlink:href="#DejaVuSans-6f" x="39.208984"/>
       <use xlink:href="#DejaVuSans-6b" x="100.390625"/>
       <use xlink:href="#DejaVuSans-5f" x="158.300781"/>
       <use xlink:href="#DejaVuSans-63" x="208.300781"/>
       <use xlink:href="#DejaVuSans-6f" x="263.28125"/>
       <use xlink:href="#DejaVuSans-6c" x="324.462891"/>
       <use xlink:href="#DejaVuSans-6b" x="352.246094"/>
       <use xlink:href="#DejaVuSans-77" x="410.15625"/>
       <use xlink:href="#DejaVuSans-5f" x="491.943359"/>
       <use xlink:href="#DejaVuSans-74" x="541.943359"/>
       <use xlink:href="#DejaVuSans-6f" x="581.152344"/>
       <use xlink:href="#DejaVuSans-5f" x="642.333984"/>
       <use xlink:href="#DejaVuSans-68" x="692.333984"/>
       <use xlink:href="#DejaVuSans-64" x="755.712891"/>
       <use xlink:href="#DejaVuSans-72" x="819.189453"/>
      </g>
     </g>
    </g>
    <g id="ytick_8">
     <g id="line2d_22">
      <g>
       <use xlink:href="#me20e1ed1ce" x="130.476562" y="216.358125" style="stroke: #000000; stroke-width: 0.8"/>
      </g>
     </g>
     <g id="text_16">
      <!-- tok_colname_axis -->
      <g transform="translate(34.857812 220.157344) scale(0.1 -0.1)">
       <use xlink:href="#DejaVuSans-74"/>
       <use xlink:href="#DejaVuSans-6f" x="39.208984"/>
       <use xlink:href="#DejaVuSans-6b" x="100.390625"/>
       <use xlink:href="#DejaVuSans-5f" x="158.300781"/>
       <use xlink:href="#DejaVuSans-63" x="208.300781"/>
       <use xlink:href="#DejaVuSans-6f" x="263.28125"/>
       <use xlink:href="#DejaVuSans-6c" x="324.462891"/>
       <use xlink:href="#DejaVuSans-6e" x="352.246094"/>
       <use xlink:href="#DejaVuSans-61" x="415.625"/>
       <use xlink:href="#DejaVuSans-6d" x="476.904297"/>
       <use xlink:href="#DejaVuSans-65" x="574.316406"/>
       <use xlink:href="#DejaVuSans-5f" x="635.839844"/>
       <use xlink:href="#DejaVuSans-61" x="685.839844"/>
       <use xlink:href="#DejaVuSans-78" x="747.119141"/>
       <use xlink:href="#DejaVuSans-69" x="806.298828"/>
       <use xlink:href="#DejaVuSans-73" x="834.082031"/>
      </g>
     </g>
    </g>
    <g id="ytick_9">
     <g id="line2d_23">
      <g>
       <use xlink:href="#me20e1ed1ce" x="130.476562" y="194.182125" style="stroke: #000000; stroke-width: 0.8"/>
      </g>
     </g>
     <g id="text_17">
      <!-- tok_rowidx_precstruct -->
      <g transform="translate(13.535937 197.981344) scale(0.1 -0.1)">
       <defs>
        <path id="DejaVuSans-70" d="M 1159 525 
L 1159 -1331 
L 581 -1331 
L 581 3500 
L 1159 3500 
L 1159 2969 
Q 1341 3281 1617 3432 
Q 1894 3584 2278 3584 
Q 2916 3584 3314 3078 
Q 3713 2572 3713 1747 
Q 3713 922 3314 415 
Q 2916 -91 2278 -91 
Q 1894 -91 1617 61 
Q 1341 213 1159 525 
z
M 3116 1747 
Q 3116 2381 2855 2742 
Q 2594 3103 2138 3103 
Q 1681 3103 1420 2742 
Q 1159 2381 1159 1747 
Q 1159 1113 1420 752 
Q 1681 391 2138 391 
Q 2594 391 2855 752 
Q 3116 1113 3116 1747 
z
" transform="scale(0.015625)"/>
        <path id="DejaVuSans-75" d="M 544 1381 
L 544 3500 
L 1119 3500 
L 1119 1403 
Q 1119 906 1312 657 
Q 1506 409 1894 409 
Q 2359 409 2629 706 
Q 2900 1003 2900 1516 
L 2900 3500 
L 3475 3500 
L 3475 0 
L 2900 0 
L 2900 538 
Q 2691 219 2414 64 
Q 2138 -91 1772 -91 
Q 1169 -91 856 284 
Q 544 659 544 1381 
z
M 1991 3584 
L 1991 3584 
z
" transform="scale(0.015625)"/>
       </defs>
       <use xlink:href="#DejaVuSans-74"/>
       <use xlink:href="#DejaVuSans-6f" x="39.208984"/>
       <use xlink:href="#DejaVuSans-6b" x="100.390625"/>
       <use xlink:href="#DejaVuSans-5f" x="158.300781"/>
       <use xlink:href="#DejaVuSans-72" x="208.300781"/>
       <use xlink:href="#DejaVuSans-6f" x="247.164062"/>
       <use xlink:href="#DejaVuSans-77" x="308.345703"/>
       <use xlink:href="#DejaVuSans-69" x="390.132812"/>
       <use xlink:href="#DejaVuSans-64" x="417.916016"/>
       <use xlink:href="#DejaVuSans-78" x="481.392578"/>
       <use xlink:href="#DejaVuSans-5f" x="540.572266"/>
       <use xlink:href="#DejaVuSans-70" x="590.572266"/>
       <use xlink:href="#DejaVuSans-72" x="654.048828"/>
       <use xlink:href="#DejaVuSans-65" x="692.912109"/>
       <use xlink:href="#DejaVuSans-63" x="754.435547"/>
       <use xlink:href="#DejaVuSans-73" x="809.416016"/>
       <use xlink:href="#DejaVuSans-74" x="861.515625"/>
       <use xlink:href="#DejaVuSans-72" x="900.724609"/>
       <use xlink:href="#DejaVuSans-75" x="941.837891"/>
       <use xlink:href="#DejaVuSans-63" x="1005.216797"/>
       <use xlink:href="#DejaVuSans-74" x="1060.197266"/>
      </g>
     </g>
    </g>
    <g id="ytick_10">
     <g id="line2d_24">
      <g>
       <use xlink:href="#me20e1ed1ce" x="130.476562" y="172.006125" style="stroke: #000000; stroke-width: 0.8"/>
      </g>
     </g>
     <g id="text_18">
      <!-- tok_colname_to_hdr -->
      <g transform="translate(23.05625 175.805344) scale(0.1 -0.1)">
       <use xlink:href="#DejaVuSans-74"/>
       <use xlink:href="#DejaVuSans-6f" x="39.208984"/>
       <use xlink:href="#DejaVuSans-6b" x="100.390625"/>
       <use xlink:href="#DejaVuSans-5f" x="158.300781"/>
       <use xlink:href="#DejaVuSans-63" x="208.300781"/>
       <use xlink:href="#DejaVuSans-6f" x="263.28125"/>
       <use xlink:href="#DejaVuSans-6c" x="324.462891"/>
       <use xlink:href="#DejaVuSans-6e" x="352.246094"/>
       <use xlink:href="#DejaVuSans-61" x="415.625"/>
       <use xlink:href="#DejaVuSans-6d" x="476.904297"/>
       <use xlink:href="#DejaVuSans-65" x="574.316406"/>
       <use xlink:href="#DejaVuSans-5f" x="635.839844"/>
       <use xlink:href="#DejaVuSans-74" x="685.839844"/>
       <use xlink:href="#DejaVuSans-6f" x="725.048828"/>
       <use xlink:href="#DejaVuSans-5f" x="786.230469"/>
       <use xlink:href="#DejaVuSans-68" x="836.230469"/>
       <use xlink:href="#DejaVuSans-64" x="899.609375"/>
       <use xlink:href="#DejaVuSans-72" x="963.085938"/>
      </g>
     </g>
    </g>
    <g id="ytick_11">
     <g id="line2d_25">
      <g>
       <use xlink:href="#me20e1ed1ce" x="130.476562" y="149.830125" style="stroke: #000000; stroke-width: 0.8"/>
      </g>
     </g>
     <g id="text_19">
      <!-- align_col -->
      <g transform="translate(79.710938 153.629344) scale(0.1 -0.1)">
       <use xlink:href="#DejaVuSans-61"/>
       <use xlink:href="#DejaVuSans-6c" x="61.279297"/>
       <use xlink:href="#DejaVuSans-69" x="89.0625"/>
       <use xlink:href="#DejaVuSans-67" x="116.845703"/>
       <use xlink:href="#DejaVuSans-6e" x="180.322266"/>
       <use xlink:href="#DejaVuSans-5f" x="243.701172"/>
       <use xlink:href="#DejaVuSans-63" x="293.701172"/>
       <use xlink:href="#DejaVuSans-6f" x="348.681641"/>
       <use xlink:href="#DejaVuSans-6c" x="409.863281"/>
      </g>
     </g>
    </g>
    <g id="ytick_12">
     <g id="line2d_26">
      <g>
       <use xlink:href="#me20e1ed1ce" x="130.476562" y="127.654125" style="stroke: #000000; stroke-width: 0.8"/>
      </g>
     </g>
     <g id="text_20">
      <!-- qa_same_col -->
      <g transform="translate(59.373437 131.453344) scale(0.1 -0.1)">
       <defs>
        <path id="DejaVuSans-71" d="M 947 1747 
Q 947 1113 1208 752 
Q 1469 391 1925 391 
Q 2381 391 2643 752 
Q 2906 1113 2906 1747 
Q 2906 2381 2643 2742 
Q 2381 3103 1925 3103 
Q 1469 3103 1208 2742 
Q 947 2381 947 1747 
z
M 2906 525 
Q 2725 213 2448 61 
Q 2172 -91 1784 -91 
Q 1150 -91 751 415 
Q 353 922 353 1747 
Q 353 2572 751 3078 
Q 1150 3584 1784 3584 
Q 2172 3584 2448 3432 
Q 2725 3281 2906 2969 
L 2906 3500 
L 3481 3500 
L 3481 -1331 
L 2906 -1331 
L 2906 525 
z
" transform="scale(0.015625)"/>
       </defs>
       <use xlink:href="#DejaVuSans-71"/>
       <use xlink:href="#DejaVuSans-61" x="63.476562"/>
       <use xlink:href="#DejaVuSans-5f" x="124.755859"/>
       <use xlink:href="#DejaVuSans-73" x="174.755859"/>
       <use xlink:href="#DejaVuSans-61" x="226.855469"/>
       <use xlink:href="#DejaVuSans-6d" x="288.134766"/>
       <use xlink:href="#DejaVuSans-65" x="385.546875"/>
       <use xlink:href="#DejaVuSans-5f" x="447.070312"/>
       <use xlink:href="#DejaVuSans-63" x="497.070312"/>
       <use xlink:href="#DejaVuSans-6f" x="552.050781"/>
       <use xlink:href="#DejaVuSans-6c" x="613.232422"/>
      </g>
     </g>
    </g>
    <g id="ytick_13">
     <g id="line2d_27">
      <g>
       <use xlink:href="#me20e1ed1ce" x="130.476562" y="105.478125" style="stroke: #000000; stroke-width: 0.8"/>
      </g>
     </g>
     <g id="text_21">
      <!-- qa_same_row -->
      <g transform="translate(55.585938 109.138281) scale(0.1 -0.1)">
       <use xlink:href="#DejaVuSans-71"/>
       <use xlink:href="#DejaVuSans-61" x="63.476562"/>
       <use xlink:href="#DejaVuSans-5f" x="124.755859"/>
       <use xlink:href="#DejaVuSans-73" x="174.755859"/>
       <use xlink:href="#DejaVuSans-61" x="226.855469"/>
       <use xlink:href="#DejaVuSans-6d" x="288.134766"/>
       <use xlink:href="#DejaVuSans-65" x="385.546875"/>
       <use xlink:href="#DejaVuSans-5f" x="447.070312"/>
       <use xlink:href="#DejaVuSans-72" x="497.070312"/>
       <use xlink:href="#DejaVuSans-6f" x="535.933594"/>
       <use xlink:href="#DejaVuSans-77" x="597.115234"/>
      </g>
     </g>
    </g>
    <g id="ytick_14">
     <g id="line2d_28">
      <g>
       <use xlink:href="#me20e1ed1ce" x="130.476562" y="83.302125" style="stroke: #000000; stroke-width: 0.8"/>
      </g>
     </g>
     <g id="text_22">
      <!-- qa_precision_structural -->
      <g transform="translate(7.540625 87.101344) scale(0.1 -0.1)">
       <use xlink:href="#DejaVuSans-71"/>
       <use xlink:href="#DejaVuSans-61" x="63.476562"/>
       <use xlink:href="#DejaVuSans-5f" x="124.755859"/>
       <use xlink:href="#DejaVuSans-70" x="174.755859"/>
       <use xlink:href="#DejaVuSans-72" x="238.232422"/>
       <use xlink:href="#DejaVuSans-65" x="277.095703"/>
       <use xlink:href="#DejaVuSans-63" x="338.619141"/>
       <use xlink:href="#DejaVuSans-69" x="393.599609"/>
       <use xlink:href="#DejaVuSans-73" x="421.382812"/>
       <use xlink:href="#DejaVuSans-69" x="473.482422"/>
       <use xlink:href="#DejaVuSans-6f" x="501.265625"/>
       <use xlink:href="#DejaVuSans-6e" x="562.447266"/>
       <use xlink:href="#DejaVuSans-5f" x="625.826172"/>
       <use xlink:href="#DejaVuSans-73" x="675.826172"/>
       <use xlink:href="#DejaVuSans-74" x="727.925781"/>
       <use xlink:href="#DejaVuSans-72" x="767.134766"/>
       <use xlink:href="#DejaVuSans-75" x="808.248047"/>
       <use xlink:href="#DejaVuSans-63" x="871.626953"/>
       <use xlink:href="#DejaVuSans-74" x="926.607422"/>
       <use xlink:href="#DejaVuSans-75" x="965.816406"/>
       <use xlink:href="#DejaVuSans-72" x="1029.195312"/>
       <use xlink:href="#DejaVuSans-61" x="1070.308594"/>
       <use xlink:href="#DejaVuSans-6c" x="1131.587891"/>
      </g>
     </g>
    </g>
    <g id="ytick_15">
     <g id="line2d_29">
      <g>
       <use xlink:href="#me20e1ed1ce" x="130.476562" y="61.126125" style="stroke: #000000; stroke-width: 0.8"/>
      </g>
     </g>
     <g id="text_23">
      <!-- qa_precision_table -->
      <g transform="translate(30.564062 64.925344) scale(0.1 -0.1)">
       <use xlink:href="#DejaVuSans-71"/>
       <use xlink:href="#DejaVuSans-61" x="63.476562"/>
       <use xlink:href="#DejaVuSans-5f" x="124.755859"/>
       <use xlink:href="#DejaVuSans-70" x="174.755859"/>
       <use xlink:href="#DejaVuSans-72" x="238.232422"/>
       <use xlink:href="#DejaVuSans-65" x="277.095703"/>
       <use xlink:href="#DejaVuSans-63" x="338.619141"/>
       <use xlink:href="#DejaVuSans-69" x="393.599609"/>
       <use xlink:href="#DejaVuSans-73" x="421.382812"/>
       <use xlink:href="#DejaVuSans-69" x="473.482422"/>
       <use xlink:href="#DejaVuSans-6f" x="501.265625"/>
       <use xlink:href="#DejaVuSans-6e" x="562.447266"/>
       <use xlink:href="#DejaVuSans-5f" x="625.826172"/>
       <use xlink:href="#DejaVuSans-74" x="675.826172"/>
       <use xlink:href="#DejaVuSans-61" x="715.035156"/>
       <use xlink:href="#DejaVuSans-62" x="776.314453"/>
       <use xlink:href="#DejaVuSans-6c" x="839.791016"/>
       <use xlink:href="#DejaVuSans-65" x="867.574219"/>
      </g>
     </g>
    </g>
    <g id="ytick_16">
     <g id="line2d_30">
      <g>
       <use xlink:href="#me20e1ed1ce" x="130.476562" y="38.950125" style="stroke: #000000; stroke-width: 0.8"/>
      </g>
     </g>
     <g id="text_24">
      <!-- qa_correct_cell -->
      <g transform="translate(48.78125 42.749344) scale(0.1 -0.1)">
       <use xlink:href="#DejaVuSans-71"/>
       <use xlink:href="#DejaVuSans-61" x="63.476562"/>
       <use xlink:href="#DejaVuSans-5f" x="124.755859"/>
       <use xlink:href="#DejaVuSans-63" x="174.755859"/>
       <use xlink:href="#DejaVuSans-6f" x="229.736328"/>
       <use xlink:href="#DejaVuSans-72" x="290.917969"/>
       <use xlink:href="#DejaVuSans-72" x="330.28125"/>
       <use xlink:href="#DejaVuSans-65" x="369.144531"/>
       <use xlink:href="#DejaVuSans-63" x="430.667969"/>
       <use xlink:href="#DejaVuSans-74" x="485.648438"/>
       <use xlink:href="#DejaVuSans-5f" x="524.857422"/>
       <use xlink:href="#DejaVuSans-63" x="574.857422"/>
       <use xlink:href="#DejaVuSans-65" x="629.837891"/>
       <use xlink:href="#DejaVuSans-6c" x="691.361328"/>
       <use xlink:href="#DejaVuSans-6c" x="719.144531"/>
      </g>
     </g>
    </g>
   </g>
   <g id="patch_5">
    <path d="M 130.476562 388.222125 
L 130.476562 22.318125 
" style="fill: none; stroke: #000000; stroke-width: 0.8; stroke-linejoin: miter; stroke-linecap: square"/>
   </g>
   <g id="patch_6">
    <path d="M 660.576563 388.222125 
L 660.576563 22.318125 
" style="fill: none; stroke: #000000; stroke-width: 0.8; stroke-linejoin: miter; stroke-linecap: square"/>
   </g>
   <g id="patch_7">
    <path d="M 130.476562 388.222125 
L 660.576563 388.222125 
" style="fill: none; stroke: #000000; stroke-width: 0.8; stroke-linejoin: miter; stroke-linecap: square"/>
   </g>
   <g id="patch_8">
    <path d="M 130.476562 22.318125 
L 660.576563 22.318125 
" style="fill: none; stroke: #000000; stroke-width: 0.8; stroke-linejoin: miter; stroke-linecap: square"/>
   </g>
   <g id="text_25">
    <!-- peak L4 -->
    <g style="fill: #5b6267" transform="translate(276.658373 373.797625) scale(0.08 -0.08)">
     <defs>
      <path id="DejaVuSans-4c" d="M 628 4666 
L 1259 4666 
L 1259 531 
L 3531 531 
L 3531 0 
L 628 0 
L 628 4666 
z
" transform="scale(0.015625)"/>
      <path id="DejaVuSans-34" d="M 2419 4116 
L 825 1625 
L 2419 1625 
L 2419 4116 
z
M 2253 4666 
L 3047 4666 
L 3047 1625 
L 3713 1625 
L 3713 1100 
L 3047 1100 
L 3047 0 
L 2419 0 
L 2419 1100 
L 313 1100 
L 313 1709 
L 2253 4666 
z
" transform="scale(0.015625)"/>
     </defs>
     <use xlink:href="#DejaVuSans-70"/>
     <use xlink:href="#DejaVuSans-65" x="63.476562"/>
     <use xlink:href="#DejaVuSans-61" x="125"/>
     <use xlink:href="#DejaVuSans-6b" x="186.279297"/>
     <use xlink:href="#DejaVuSans-20" x="244.189453"/>
     <use xlink:href="#DejaVuSans-4c" x="275.976562"/>
     <use xlink:href="#DejaVuSans-34" x="331.689453"/>
    </g>
   </g>
   <g id="text_26">
    <!-- peak L8 -->
    <g style="fill: #5b6267" transform="translate(340.260607 351.621625) scale(0.08 -0.08)">
     <defs>
      <path id="DejaVuSans-38" d="M 2034 2216 
Q 1584 2216 1326 1975 
Q 1069 1734 1069 1313 
Q 1069 891 1326 650 
Q 1584 409 2034 409 
Q 2484 409 2743 651 
Q 3003 894 3003 1313 
Q 3003 1734 2745 1975 
Q 2488 2216 2034 2216 
z
M 1403 2484 
Q 997 2584 770 2862 
Q 544 3141 544 3541 
Q 544 4100 942 4425 
Q 1341 4750 2034 4750 
Q 2731 4750 3128 4425 
Q 3525 4100 3525 3541 
Q 3525 3141 3298 2862 
Q 3072 2584 2669 2484 
Q 3125 2378 3379 2068 
Q 3634 1759 3634 1313 
Q 3634 634 3220 271 
Q 2806 -91 2034 -91 
Q 1263 -91 848 271 
Q 434 634 434 1313 
Q 434 1759 690 2068 
Q 947 2378 1403 2484 
z
M 1172 3481 
Q 1172 3119 1398 2916 
Q 1625 2713 2034 2713 
Q 2441 2713 2670 2916 
Q 2900 3119 2900 3481 
Q 2900 3844 2670 4047 
Q 2441 4250 2034 4250 
Q 1625 4250 1398 4047 
Q 1172 3844 1172 3481 
z
" transform="scale(0.015625)"/>
     </defs>
     <use xlink:href="#DejaVuSans-70"/>
     <use xlink:href="#DejaVuSans-65" x="63.476562"/>
     <use xlink:href="#DejaVuSans-61" x="125"/>
     <use xlink:href="#DejaVuSans-6b" x="186.279297"/>
     <use xlink:href="#DejaVuSans-20" x="244.189453"/>
     <use xlink:href="#DejaVuSans-4c" x="275.976562"/>
     <use xlink:href="#DejaVuSans-38" x="331.689453"/>
    </g>
   </g>
   <g id="text_27">
    <!-- peak L8 -->
    <g style="fill: #5b6267" transform="translate(340.95117 329.445625) scale(0.08 -0.08)">
     <use xlink:href="#DejaVuSans-70"/>
     <use xlink:href="#DejaVuSans-65" x="63.476562"/>
     <use xlink:href="#DejaVuSans-61" x="125"/>
     <use xlink:href="#DejaVuSans-6b" x="186.279297"/>
     <use xlink:href="#DejaVuSans-20" x="244.189453"/>
     <use xlink:href="#DejaVuSans-4c" x="275.976562"/>
     <use xlink:href="#DejaVuSans-38" x="331.689453"/>
    </g>
   </g>
   <g id="text_28">
    <!-- peak L8 -->
    <g style="fill: #5b6267" transform="translate(343.742379 307.269625) scale(0.08 -0.08)">
     <use xlink:href="#DejaVuSans-70"/>
     <use xlink:href="#DejaVuSans-65" x="63.476562"/>
     <use xlink:href="#DejaVuSans-61" x="125"/>
     <use xlink:href="#DejaVuSans-6b" x="186.279297"/>
     <use xlink:href="#DejaVuSans-20" x="244.189453"/>
     <use xlink:href="#DejaVuSans-4c" x="275.976562"/>
     <use xlink:href="#DejaVuSans-38" x="331.689453"/>
    </g>
   </g>
   <g id="text_29">
    <!-- peak L13 -->
    <g style="fill: #5b6267" transform="translate(361.494455 285.093625) scale(0.08 -0.08)">
     <use xlink:href="#DejaVuSans-70"/>
     <use xlink:href="#DejaVuSans-65" x="63.476562"/>
     <use xlink:href="#DejaVuSans-61" x="125"/>
     <use xlink:href="#DejaVuSans-6b" x="186.279297"/>
     <use xlink:href="#DejaVuSans-20" x="244.189453"/>
     <use xlink:href="#DejaVuSans-4c" x="275.976562"/>
     <use xlink:href="#DejaVuSans-31" x="331.689453"/>
     <use xlink:href="#DejaVuSans-33" x="395.3125"/>
    </g>
   </g>
   <g id="text_30">
    <!-- peak L4 -->
    <g style="fill: #5b6267" transform="translate(362.206891 262.917625) scale(0.08 -0.08)">
     <use xlink:href="#DejaVuSans-70"/>
     <use xlink:href="#DejaVuSans-65" x="63.476562"/>
     <use xlink:href="#DejaVuSans-61" x="125"/>
     <use xlink:href="#DejaVuSans-6b" x="186.279297"/>
     <use xlink:href="#DejaVuSans-20" x="244.189453"/>
     <use xlink:href="#DejaVuSans-4c" x="275.976562"/>
     <use xlink:href="#DejaVuSans-34" x="331.689453"/>
    </g>
   </g>
   <g id="text_31">
    <!-- peak L8 -->
    <g style="fill: #5b6267" transform="translate(365.284399 240.741625) scale(0.08 -0.08)">
     <use xlink:href="#DejaVuSans-70"/>
     <use xlink:href="#DejaVuSans-65" x="63.476562"/>
     <use xlink:href="#DejaVuSans-61" x="125"/>
     <use xlink:href="#DejaVuSans-6b" x="186.279297"/>
     <use xlink:href="#DejaVuSans-20" x="244.189453"/>
     <use xlink:href="#DejaVuSans-4c" x="275.976562"/>
     <use xlink:href="#DejaVuSans-38" x="331.689453"/>
    </g>
   </g>
   <g id="text_32">
    <!-- peak L8 -->
    <g style="fill: #5b6267" transform="translate(379.347551 218.565625) scale(0.08 -0.08)">
     <use xlink:href="#DejaVuSans-70"/>
     <use xlink:href="#DejaVuSans-65" x="63.476562"/>
     <use xlink:href="#DejaVuSans-61" x="125"/>
     <use xlink:href="#DejaVuSans-6b" x="186.279297"/>
     <use xlink:href="#DejaVuSans-20" x="244.189453"/>
     <use xlink:href="#DejaVuSans-4c" x="275.976562"/>
     <use xlink:href="#DejaVuSans-38" x="331.689453"/>
    </g>
   </g>
   <g id="text_33">
    <!-- peak L13 -->
    <g style="fill: #5b6267" transform="translate(385.574868 196.389625) scale(0.08 -0.08)">
     <use xlink:href="#DejaVuSans-70"/>
     <use xlink:href="#DejaVuSans-65" x="63.476562"/>
     <use xlink:href="#DejaVuSans-61" x="125"/>
     <use xlink:href="#DejaVuSans-6b" x="186.279297"/>
     <use xlink:href="#DejaVuSans-20" x="244.189453"/>
     <use xlink:href="#DejaVuSans-4c" x="275.976562"/>
     <use xlink:href="#DejaVuSans-31" x="331.689453"/>
     <use xlink:href="#DejaVuSans-33" x="395.3125"/>
    </g>
   </g>
   <g id="text_34">
    <!-- peak L8 -->
    <g style="fill: #5b6267" transform="translate(388.78299 174.213625) scale(0.08 -0.08)">
     <use xlink:href="#DejaVuSans-70"/>
     <use xlink:href="#DejaVuSans-65" x="63.476562"/>
     <use xlink:href="#DejaVuSans-61" x="125"/>
     <use xlink:href="#DejaVuSans-6b" x="186.279297"/>
     <use xlink:href="#DejaVuSans-20" x="244.189453"/>
     <use xlink:href="#DejaVuSans-4c" x="275.976562"/>
     <use xlink:href="#DejaVuSans-38" x="331.689453"/>
    </g>
   </g>
   <g id="text_35">
    <!-- peak L4 -->
    <g style="fill: #5b6267" transform="translate(409.646693 152.037625) scale(0.08 -0.08)">
     <use xlink:href="#DejaVuSans-70"/>
     <use xlink:href="#DejaVuSans-65" x="63.476562"/>
     <use xlink:href="#DejaVuSans-61" x="125"/>
     <use xlink:href="#DejaVuSans-6b" x="186.279297"/>
     <use xlink:href="#DejaVuSans-20" x="244.189453"/>
     <use xlink:href="#DejaVuSans-4c" x="275.976562"/>
     <use xlink:href="#DejaVuSans-34" x="331.689453"/>
    </g>
   </g>
   <g id="text_36">
    <!-- peak L19 -->
    <g style="fill: #5b6267" transform="translate(443.601134 129.861625) scale(0.08 -0.08)">
     <defs>
      <path id="DejaVuSans-39" d="M 703 97 
L 703 672 
Q 941 559 1184 500 
Q 1428 441 1663 441 
Q 2288 441 2617 861 
Q 2947 1281 2994 2138 
Q 2813 1869 2534 1725 
Q 2256 1581 1919 1581 
Q 1219 1581 811 2004 
Q 403 2428 403 3163 
Q 403 3881 828 4315 
Q 1253 4750 1959 4750 
Q 2769 4750 3195 4129 
Q 3622 3509 3622 2328 
Q 3622 1225 3098 567 
Q 2575 -91 1691 -91 
Q 1453 -91 1209 -44 
Q 966 3 703 97 
z
M 1959 2075 
Q 2384 2075 2632 2365 
Q 2881 2656 2881 3163 
Q 2881 3666 2632 3958 
Q 2384 4250 1959 4250 
Q 1534 4250 1286 3958 
Q 1038 3666 1038 3163 
Q 1038 2656 1286 2365 
Q 1534 2075 1959 2075 
z
" transform="scale(0.015625)"/>
     </defs>
     <use xlink:href="#DejaVuSans-70"/>
     <use xlink:href="#DejaVuSans-65" x="63.476562"/>
     <use xlink:href="#DejaVuSans-61" x="125"/>
     <use xlink:href="#DejaVuSans-6b" x="186.279297"/>
     <use xlink:href="#DejaVuSans-20" x="244.189453"/>
     <use xlink:href="#DejaVuSans-4c" x="275.976562"/>
     <use xlink:href="#DejaVuSans-31" x="331.689453"/>
     <use xlink:href="#DejaVuSans-39" x="395.3125"/>
    </g>
   </g>
   <g id="text_37">
    <!-- peak L16 -->
    <g style="fill: #5b6267" transform="translate(450.374514 107.685625) scale(0.08 -0.08)">
     <defs>
      <path id="DejaVuSans-36" d="M 2113 2584 
Q 1688 2584 1439 2293 
Q 1191 2003 1191 1497 
Q 1191 994 1439 701 
Q 1688 409 2113 409 
Q 2538 409 2786 701 
Q 3034 994 3034 1497 
Q 3034 2003 2786 2293 
Q 2538 2584 2113 2584 
z
M 3366 4563 
L 3366 3988 
Q 3128 4100 2886 4159 
Q 2644 4219 2406 4219 
Q 1781 4219 1451 3797 
Q 1122 3375 1075 2522 
Q 1259 2794 1537 2939 
Q 1816 3084 2150 3084 
Q 2853 3084 3261 2657 
Q 3669 2231 3669 1497 
Q 3669 778 3244 343 
Q 2819 -91 2113 -91 
Q 1303 -91 875 529 
Q 447 1150 447 2328 
Q 447 3434 972 4092 
Q 1497 4750 2381 4750 
Q 2619 4750 2861 4703 
Q 3103 4656 3366 4563 
z
" transform="scale(0.015625)"/>
     </defs>
     <use xlink:href="#DejaVuSans-70"/>
     <use xlink:href="#DejaVuSans-65" x="63.476562"/>
     <use xlink:href="#DejaVuSans-61" x="125"/>
     <use xlink:href="#DejaVuSans-6b" x="186.279297"/>
     <use xlink:href="#DejaVuSans-20" x="244.189453"/>
     <use xlink:href="#DejaVuSans-4c" x="275.976562"/>
     <use xlink:href="#DejaVuSans-31" x="331.689453"/>
     <use xlink:href="#DejaVuSans-36" x="395.3125"/>
    </g>
   </g>
   <g id="text_38">
    <!-- peak L24 -->
    <g style="fill: #5b6267" transform="translate(466.828535 85.509625) scale(0.08 -0.08)">
     <use xlink:href="#DejaVuSans-70"/>
     <use xlink:href="#DejaVuSans-65" x="63.476562"/>
     <use xlink:href="#DejaVuSans-61" x="125"/>
     <use xlink:href="#DejaVuSans-6b" x="186.279297"/>
     <use xlink:href="#DejaVuSans-20" x="244.189453"/>
     <use xlink:href="#DejaVuSans-4c" x="275.976562"/>
     <use xlink:href="#DejaVuSans-32" x="331.689453"/>
     <use xlink:href="#DejaVuSans-34" x="395.3125"/>
    </g>
   </g>
   <g id="text_39">
    <!-- peak L24 -->
    <g style="fill: #5b6267" transform="translate(484.190389 63.333625) scale(0.08 -0.08)">
     <use xlink:href="#DejaVuSans-70"/>
     <use xlink:href="#DejaVuSans-65" x="63.476562"/>
     <use xlink:href="#DejaVuSans-61" x="125"/>
     <use xlink:href="#DejaVuSans-6b" x="186.279297"/>
     <use xlink:href="#DejaVuSans-20" x="244.189453"/>
     <use xlink:href="#DejaVuSans-4c" x="275.976562"/>
     <use xlink:href="#DejaVuSans-32" x="331.689453"/>
     <use xlink:href="#DejaVuSans-34" x="395.3125"/>
    </g>
   </g>
   <g id="text_40">
    <!-- peak L17 -->
    <g style="fill: #5b6267" transform="translate(488.906578 41.157625) scale(0.08 -0.08)">
     <defs>
      <path id="DejaVuSans-37" d="M 525 4666 
L 3525 4666 
L 3525 4397 
L 1831 0 
L 1172 0 
L 2766 4134 
L 525 4134 
L 525 4666 
z
" transform="scale(0.015625)"/>
     </defs>
     <use xlink:href="#DejaVuSans-70"/>
     <use xlink:href="#DejaVuSans-65" x="63.476562"/>
     <use xlink:href="#DejaVuSans-61" x="125"/>
     <use xlink:href="#DejaVuSans-6b" x="186.279297"/>
     <use xlink:href="#DejaVuSans-20" x="244.189453"/>
     <use xlink:href="#DejaVuSans-4c" x="275.976562"/>
     <use xlink:href="#DejaVuSans-31" x="331.689453"/>
     <use xlink:href="#DejaVuSans-37" x="395.3125"/>
    </g>
   </g>
   <g id="text_41">
    <!-- Matching metrics peak earlier than retrieval metrics -->
    <g transform="translate(238.896563 16.318125) scale(0.12 -0.12)">
     <defs>
      <path id="DejaVuSans-4d" d="M 628 4666 
L 1569 4666 
L 2759 1491 
L 3956 4666 
L 4897 4666 
L 4897 0 
L 4281 0 
L 4281 4097 
L 3078 897 
L 2444 897 
L 1241 4097 
L 1241 0 
L 628 0 
L 628 4666 
z
" transform="scale(0.015625)"/>
      <path id="DejaVuSans-76" d="M 191 3500 
L 800 3500 
L 1894 563 
L 2988 3500 
L 3597 3500 
L 2284 0 
L 1503 0 
L 191 3500 
z
" transform="scale(0.015625)"/>
     </defs>
     <use xlink:href="#DejaVuSans-4d"/>
     <use xlink:href="#DejaVuSans-61" x="86.279297"/>
     <use xlink:href="#DejaVuSans-74" x="147.558594"/>
     <use xlink:href="#DejaVuSans-63" x="186.767578"/>
     <use xlink:href="#DejaVuSans-68" x="241.748047"/>
     <use xlink:href="#DejaVuSans-69" x="305.126953"/>
     <use xlink:href="#DejaVuSans-6e" x="332.910156"/>
     <use xlink:href="#DejaVuSans-67" x="396.289062"/>
     <use xlink:href="#DejaVuSans-20" x="459.765625"/>
     <use xlink:href="#DejaVuSans-6d" x="491.552734"/>
     <use xlink:href="#DejaVuSans-65" x="588.964844"/>
     <use xlink:href="#DejaVuSans-74" x="650.488281"/>
     <use xlink:href="#DejaVuSans-72" x="689.697266"/>
     <use xlink:href="#DejaVuSans-69" x="730.810547"/>
     <use xlink:href="#DejaVuSans-63" x="758.59375"/>
     <use xlink:href="#DejaVuSans-73" x="813.574219"/>
     <use xlink:href="#DejaVuSans-20" x="865.673828"/>
     <use xlink:href="#DejaVuSans-70" x="897.460938"/>
     <use xlink:href="#DejaVuSans-65" x="960.9375"/>
     <use xlink:href="#DejaVuSans-61" x="1022.460938"/>
     <use xlink:href="#DejaVuSans-6b" x="1083.740234"/>
     <use xlink:href="#DejaVuSans-20" x="1141.650391"/>
     <use xlink:href="#DejaVuSans-65" x="1173.4375"/>
     <use xlink:href="#DejaVuSans-61" x="1234.960938"/>
     <use xlink:href="#DejaVuSans-72" x="1296.240234"/>
     <use xlink:href="#DejaVuSans-6c" x="1337.353516"/>
     <use xlink:href="#DejaVuSans-69" x="1365.136719"/>
     <use xlink:href="#DejaVuSans-65" x="1392.919922"/>
     <use xlink:href="#DejaVuSans-72" x="1454.443359"/>
     <use xlink:href="#DejaVuSans-20" x="1495.556641"/>
     <use xlink:href="#DejaVuSans-74" x="1527.34375"/>
     <use xlink:href="#DejaVuSans-68" x="1566.552734"/>
     <use xlink:href="#DejaVuSans-61" x="1629.931641"/>
     <use xlink:href="#DejaVuSans-6e" x="1691.210938"/>
     <use xlink:href="#DejaVuSans-20" x="1754.589844"/>
     <use xlink:href="#DejaVuSans-72" x="1786.376953"/>
     <use xlink:href="#DejaVuSans-65" x="1825.240234"/>
     <use xlink:href="#DejaVuSans-74" x="1886.763672"/>
     <use xlink:href="#DejaVuSans-72" x="1925.972656"/>
     <use xlink:href="#DejaVuSans-69" x="1967.085938"/>
     <use xlink:href="#DejaVuSans-65" x="1994.869141"/>
     <use xlink:href="#DejaVuSans-76" x="2056.392578"/>
     <use xlink:href="#DejaVuSans-61" x="2115.572266"/>
     <use xlink:href="#DejaVuSans-6c" x="2176.851562"/>
     <use xlink:href="#DejaVuSans-20" x="2204.634766"/>
     <use xlink:href="#DejaVuSans-6d" x="2236.421875"/>
     <use xlink:href="#DejaVuSans-65" x="2333.833984"/>
     <use xlink:href="#DejaVuSans-74" x="2395.357422"/>
     <use xlink:href="#DejaVuSans-72" x="2434.566406"/>
     <use xlink:href="#DejaVuSans-69" x="2475.679688"/>
     <use xlink:href="#DejaVuSans-63" x="2503.462891"/>
     <use xlink:href="#DejaVuSans-73" x="2558.443359"/>
    </g>
   </g>
  </g>
 </g>
 <defs>
  <clipPath id="p87ac0685ec">
   <rect x="130.476562" y="22.318125" width="530.1" height="365.904"/>
  </clipPath>
 </defs>
</svg>
