<svg xmlns="http://www.w3.org/2000/svg" width="940" height="540" viewBox="0 0 940 540">
<rect width="940" height="540" fill="#FBFAF7"/>

    <defs>
      <marker id="arrow" markerWidth="10" markerHeight="10" refX="8" refY="3"
              orient="auto" markerUnits="strokeWidth">
        <path d="M0,0 L0,6 L9,3 z" fill="#2F3437" />
      </marker>
      <filter id="shadow" x="-20%" y="-20%" width="140%" height="140%">
        <feDropShadow dx="0" dy="2" stdDeviation="2" flood-opacity="0.16"/>
      </filter>
    </defs>
    
<text x="60" y="45" text-anchor="start" font-family="Inter, Arial, sans-serif" font-size="20" font-weight="750" fill="#2F3437">Where this thesis sits</text>
<g filter="url(#shadow)">
<rect x="345.0" y="189.0" width="250" height="82" rx="10" fill="#FFFFFF" stroke="#D4D7DA" stroke-width="1.2"/>
<rect x="345.0" y="189.0" width="9" height="82" rx="5" fill="#4C78A8"/>
<text x="470" y="224" text-anchor="middle" font-family="Inter, Arial, sans-serif" font-size="16" font-weight="750" fill="#2F3437">This thesis</text>
<text x="470" y="248" text-anchor="middle" font-family="Inter, Arial, sans-serif" font-size="12" font-weight="500" fill="#5B6267">Table structure circuits</text>
</g>
<g filter="url(#shadow)">
<rect x="35.0" y="85.0" width="250" height="70" rx="10" fill="#FFFFFF" stroke="#D4D7DA" stroke-width="1.2"/>
<rect x="35.0" y="85.0" width="9" height="70" rx="5" fill="#E15759"/>
<text x="160" y="114" text-anchor="middle" font-family="Inter, Arial, sans-serif" font-size="16" font-weight="750" fill="#2F3437">IOI</text>
<text x="160" y="138" text-anchor="middle" font-family="Inter, Arial, sans-serif" font-size="12" font-weight="500" fill="#5B6267">causal circuit analysis</text>
</g>
<g filter="url(#shadow)">
<rect x="655.0" y="85.0" width="250" height="70" rx="10" fill="#FFFFFF" stroke="#D4D7DA" stroke-width="1.2"/>
<rect x="655.0" y="85.0" width="9" height="70" rx="5" fill="#F28E2B"/>
<text x="780" y="114" text-anchor="middle" font-family="Inter, Arial, sans-serif" font-size="16" font-weight="750" fill="#2F3437">Induction heads</text>
<text x="780" y="138" text-anchor="middle" font-family="Inter, Arial, sans-serif" font-size="12" font-weight="500" fill="#5B6267">in-context routing</text>
</g>
<g filter="url(#shadow)">
<rect x="35.0" y="325.0" width="250" height="70" rx="10" fill="#FFFFFF" stroke="#D4D7DA" stroke-width="1.2"/>
<rect x="35.0" y="325.0" width="9" height="70" rx="5" fill="#59A14F"/>
<text x="160" y="354" text-anchor="middle" font-family="Inter, Arial, sans-serif" font-size="16" font-weight="750" fill="#2F3437">World models</text>
<text x="160" y="378" text-anchor="middle" font-family="Inter, Arial, sans-serif" font-size="12" font-weight="500" fill="#5B6267">latent state from sequence</text>
</g>
<g filter="url(#shadow)">
<rect x="655.0" y="325.0" width="250" height="70" rx="10" fill="#FFFFFF" stroke="#D4D7DA" stroke-width="1.2"/>
<rect x="655.0" y="325.0" width="9" height="70" rx="5" fill="#B07AA1"/>
<text x="780" y="354" text-anchor="middle" font-family="Inter, Arial, sans-serif" font-size="16" font-weight="750" fill="#2F3437">Table QA</text>
<text x="780" y="378" text-anchor="middle" font-family="Inter, Arial, sans-serif" font-size="12" font-weight="500" fill="#5B6267">structured data benchmarks</text>
</g>
<path d="M285 143 C315.0 143, 315.0 201, 345 201" stroke="#687078" stroke-width="2" fill="none" marker-end="url(#arrow)"/>
<path d="M655 201 C695.0 201, 695.0 143, 735 143" stroke="#687078" stroke-width="2" fill="none" marker-end="url(#arrow)"/>
<path d="M285 337 C315.0 337, 315.0 259, 345 259" stroke="#687078" stroke-width="2" fill="none" marker-end="url(#arrow)"/>
<path d="M655 259 C695.0 259, 695.0 337, 735 337" stroke="#687078" stroke-width="2" fill="none" marker-end="url(#arrow)"/>
<text x="470" y="505" text-anchor="middle" font-family="Inter, Arial, sans-serif" font-size="14" font-weight="550" fill="#2F3437">Goal: explain how ordinary decoder LLMs extract grid structure from text.</text>
</svg>
