<svg xmlns="http://www.w3.org/2000/svg" width="780" height="430" viewBox="0 0 780 430">
<rect width="780" height="430" fill="#FBFAF7"/>

    <defs>
      <marker id="arrow" markerWidth="10" markerHeight="10" refX="8" refY="3"
              orient="auto" markerUnits="strokeWidth">
        <path d="M0,0 L0,6 L9,3 z" fill="#2F3437" />
      </marker>
      <filter id="shadow" x="-20%" y="-20%" width="140%" height="140%">
        <feDropShadow dx="0" dy="2" stdDeviation="2" flood-opacity="0.16"/>
      </filter>
    </defs>
    
<text x="60" y="42" text-anchor="start" font-family="Inter, Arial, sans-serif" font-size="19" font-weight="750" fill="#2F3437">Structural lookup decomposes into matching plus retrieval</text>
<rect x="86" y="84" width="112" height="42" rx="4" fill="#4C78A8" stroke="#FFFFFF" stroke-width="1.2"/>
<text x="142.0" y="111" text-anchor="middle" font-family="Inter, Arial, sans-serif" font-size="13" font-weight="750" fill="#FFFFFF">Row</text>
<rect x="198" y="84" width="112" height="42" rx="4" fill="#4C78A8" stroke="#FFFFFF" stroke-width="1.2"/>
<text x="254.0" y="111" text-anchor="middle" font-family="Inter, Arial, sans-serif" font-size="13" font-weight="750" fill="#FFFFFF">Name</text>
<rect x="310" y="84" width="112" height="42" rx="4" fill="#4C78A8" stroke="#FFFFFF" stroke-width="1.2"/>
<text x="366.0" y="111" text-anchor="middle" font-family="Inter, Arial, sans-serif" font-size="13" font-weight="750" fill="#FFFFFF">Score</text>
<rect x="422" y="84" width="112" height="42" rx="4" fill="#4C78A8" stroke="#FFFFFF" stroke-width="1.2"/>
<text x="478.0" y="111" text-anchor="middle" font-family="Inter, Arial, sans-serif" font-size="13" font-weight="750" fill="#FFFFFF">City</text>
<rect x="86" y="126" width="112" height="42" rx="4" fill="#59A14F" stroke="#D4D7DA" stroke-width="1.2"/>
<text x="142.0" y="153" text-anchor="middle" font-family="Inter, Arial, sans-serif" font-size="13" font-weight="700" fill="#FFFFFF">1</text>
<rect x="198" y="126" width="112" height="42" rx="4" fill="#FFFDF8" stroke="#D4D7DA" stroke-width="1.2"/>
<text x="254.0" y="153" text-anchor="middle" font-family="Inter, Arial, sans-serif" font-size="13" font-weight="500" fill="#2F3437">Ada</text>
<rect x="310" y="126" width="112" height="42" rx="4" fill="#FFFDF8" stroke="#D4D7DA" stroke-width="1.2"/>
<text x="366.0" y="153" text-anchor="middle" font-family="Inter, Arial, sans-serif" font-size="13" font-weight="500" fill="#2F3437">91</text>
<rect x="422" y="126" width="112" height="42" rx="4" fill="#FFFDF8" stroke="#D4D7DA" stroke-width="1.2"/>
<text x="478.0" y="153" text-anchor="middle" font-family="Inter, Arial, sans-serif" font-size="13" font-weight="500" fill="#2F3437">Boston</text>
<rect x="86" y="168" width="112" height="42" rx="4" fill="#59A14F" stroke="#D4D7DA" stroke-width="1.2"/>
<text x="142.0" y="195" text-anchor="middle" font-family="Inter, Arial, sans-serif" font-size="13" font-weight="700" fill="#FFFFFF">2</text>
<rect x="198" y="168" width="112" height="42" rx="4" fill="#FFFDF8" stroke="#D4D7DA" stroke-width="1.2"/>
<text x="254.0" y="195" text-anchor="middle" font-family="Inter, Arial, sans-serif" font-size="13" font-weight="500" fill="#2F3437">Bea</text>
<rect x="310" y="168" width="112" height="42" rx="4" fill="#F28E2B" stroke="#D4D7DA" stroke-width="1.2"/>
<text x="366.0" y="195" text-anchor="middle" font-family="Inter, Arial, sans-serif" font-size="13" font-weight="700" fill="#2F3437">84</text>
<rect x="422" y="168" width="112" height="42" rx="4" fill="#FFFDF8" stroke="#D4D7DA" stroke-width="1.2"/>
<text x="478.0" y="195" text-anchor="middle" font-family="Inter, Arial, sans-serif" font-size="13" font-weight="500" fill="#2F3437">Denver</text>
<rect x="86" y="210" width="112" height="42" rx="4" fill="#59A14F" stroke="#D4D7DA" stroke-width="1.2"/>
<text x="142.0" y="237" text-anchor="middle" font-family="Inter, Arial, sans-serif" font-size="13" font-weight="700" fill="#FFFFFF">3</text>
<rect x="198" y="210" width="112" height="42" rx="4" fill="#FFFDF8" stroke="#D4D7DA" stroke-width="1.2"/>
<text x="254.0" y="237" text-anchor="middle" font-family="Inter, Arial, sans-serif" font-size="13" font-weight="500" fill="#2F3437">Cal</text>
<rect x="310" y="210" width="112" height="42" rx="4" fill="#FFFDF8" stroke="#D4D7DA" stroke-width="1.2"/>
<text x="366.0" y="237" text-anchor="middle" font-family="Inter, Arial, sans-serif" font-size="13" font-weight="500" fill="#2F3437">77</text>
<rect x="422" y="210" width="112" height="42" rx="4" fill="#FFFDF8" stroke="#D4D7DA" stroke-width="1.2"/>
<text x="478.0" y="237" text-anchor="middle" font-family="Inter, Arial, sans-serif" font-size="13" font-weight="500" fill="#2F3437">Austin</text>
<text x="72" y="310" text-anchor="start" font-family="Inter, Arial, sans-serif" font-size="15" font-weight="750" fill="#2F3437">Question:</text>
<rect x="170" y="286" width="236" height="34" rx="14" fill="#FFFFFF" stroke="#D4D7DA" stroke-width="1.2"/>
<text x="288.0" y="308" text-anchor="middle" font-family="Inter, Arial, sans-serif" font-size="12" font-weight="500" fill="#2F3437">What is the value in the</text>
<rect x="414" y="286" width="65" height="34" rx="14" fill="#4C78A8" stroke="#D4D7DA" stroke-width="1.2"/>
<text x="446.5" y="308" text-anchor="middle" font-family="Inter, Arial, sans-serif" font-size="12" font-weight="700" fill="#FFFFFF">Score</text>
<rect x="487" y="286" width="119" height="34" rx="14" fill="#FFFFFF" stroke="#D4D7DA" stroke-width="1.2"/>
<text x="546.5" y="308" text-anchor="middle" font-family="Inter, Arial, sans-serif" font-size="12" font-weight="500" fill="#2F3437">column, row</text>
<rect x="614" y="286" width="34" height="34" rx="14" fill="#59A14F" stroke="#D4D7DA" stroke-width="1.2"/>
<text x="631.0" y="308" text-anchor="middle" font-family="Inter, Arial, sans-serif" font-size="12" font-weight="700" fill="#FFFFFF">2</text>
<rect x="656" y="286" width="34" height="34" rx="14" fill="#FFFFFF" stroke="#D4D7DA" stroke-width="1.2"/>
<text x="673.0" y="308" text-anchor="middle" font-family="Inter, Arial, sans-serif" font-size="12" font-weight="500" fill="#2F3437">?</text>
<text x="72" y="386" text-anchor="start" font-family="Inter, Arial, sans-serif" font-size="17" font-weight="750" fill="#2F3437">Answer: 84</text>
<path d="M312 286 C312 214, 366.0 177.0, 366.0 105.0" stroke="#4C78A8" stroke-width="3" fill="none" marker-end="url(#arrow)"/>
<text x="339.0" y="81.0" text-anchor="middle" font-family="Inter, Arial, sans-serif" font-size="12" font-weight="750" fill="#4C78A8">column match</text>
<path d="M556 286 C556 214, 142.0 261.0, 142.0 189.0" stroke="#59A14F" stroke-width="3" fill="none" marker-end="url(#arrow)"/>
<text x="349.0" y="165.0" text-anchor="middle" font-family="Inter, Arial, sans-serif" font-size="12" font-weight="750" fill="#59A14F">row match</text>
<path d="M172 378 C172 306, 366.0 261.0, 366.0 189.0" stroke="#F28E2B" stroke-width="3" fill="none" marker-end="url(#arrow)"/>
<text x="269.0" y="165.0" text-anchor="middle" font-family="Inter, Arial, sans-serif" font-size="12" font-weight="750" fill="#F28E2B">cell retrieval</text>
</svg>
